<svg xmlns="http://www.w3.org/2000/svg" xmlns:xlink="http://www.w3.org/1999/xlink" width="218px" height="34px" viewBox="0 0 218 34"><title>Logo/Partner/Anthem BCBS/Blue Horizontal</title><g id="Logo/Partner/Anthem-BCBS/Blue-Horizontal" stroke="none" stroke-width="1" fill="none" fill-rule="evenodd"><g id="top-logo-abcbs" transform="translate(-0.000000, 0.000000)" fill-rule="nonzero"><g id="Group-5" transform="translate(90.736211, 0.000000)"><path d="M113.925133,33.1272432 C112.795724,32.8826631 109.866189,30.4585658 108.390362,28.8917508 C106.912864,27.3253533 100.916062,20.1749339 100.916062,9.49980702 C100.916062,5.48552188 101.65481,2.25297475 102.94616,0.000834744257 C106.083963,1.66531479 109.24347,2.54680473 113.925133,2.54680473 L113.925133,5.27683582 C109.958429,5.27683582 117.892255,5.27600108 113.925133,5.27683582 L113.925133,2.54680473 C118.607214,2.54596998 121.76839,1.66448005 124.906194,4.17038532e-16 C126.195457,2.25255738 126.936292,5.48510451 126.936292,9.49980702 C126.936292,20.1749339 120.937403,27.3245185 119.461575,28.8917508 C117.986164,30.4585658 115.05496,32.8826631 113.925133,33.1272432" id="Fill-1" fill="#FFFFFE"></path><polyline id="Fill-3" fill="#FFFFFE" points="96.4468408 9.4730952 87.2634018 9.4730952 87.2634018 0.290908374 72.669568 0.290908374 72.669568 9.4730952 63.4873811 9.4730952 63.4873811 24.066929 72.669568 24.066929 72.669568 33.2491159 87.2634018 33.2491159 87.2634018 24.066929 96.4468408 24.066929 96.4468408 9.4730952"></polyline><path d="M12.7332608,21.0514154 L5.3975164,21.0514154 C5.3975164,20.5526557 5.3975164,18.9795802 5.3975164,18.9795802 C5.39502407,17.6185297 5.78818861,16.5070677 6.53194574,15.7653974 C7.18429838,15.1138795 8.08206583,14.7570263 9.05955135,14.7599302 C11.4218776,14.767878 12.7265829,16.2700003 12.7332608,18.9875102 C12.7332608,18.9875102 12.7332608,20.5543252 12.7332608,21.0514154 Z M15.4123725,15.552955 C13.8451402,14.1668622 11.6597797,13.4343741 9.08960215,13.4343741 C6.80031602,13.4343741 4.51520362,14.4836476 2.81983803,16.3129896 C1.008443,18.2675433 0.00716726055,20.9458203 3.57840686e-05,23.8540693 C-0.00702339182,26.705973 1.03056372,29.3178878 2.92125946,31.2090009 C4.72388968,33.0141354 7.12503154,34.0045594 9.68143583,33.9999842 C14.6218697,33.9912035 17.3953075,30.3366932 17.8819634,26.9434578 L17.9070057,26.7673267 L16.3769195,26.7673267 L16.3598073,26.9029727 C16.0113015,29.6542897 13.6702613,32.5754773 10.0186725,32.5683819 C7.10291082,32.5629561 5.42674435,30.5687521 5.41964902,27.096216 C5.41964902,27.096216 5.41964902,23.2993817 5.41964902,22.4871755 L18.2058442,22.4871755 L18.200001,22.3281568 C18.1040054,19.383179 17.1661702,17.1030751 15.4123725,15.552955 Z" id="Fill-4" fill="#0067A5"></path></g><path d="M66.0791901,29.5532857 L64.6438474,29.5532857 L64.6208919,29.6797494 C64.4501867,30.5862817 63.8884038,32.1067684 62.0348542,32.1017599 C60.5986767,32.0980035 59.8674407,31.0933888 59.859928,29.1154623 C59.859928,29.1154623 59.859928,16.8468086 59.859928,15.3284088 L64.5854153,15.3284088 L64.5845805,15.1748158 L64.5837458,14.1313855 L64.5837458,13.9773752 L59.8912309,13.9773752 L59.8912309,8.00728428 L59.7209431,8.0264834 C58.6136549,8.1462692 56.3665233,8.31906126 55.1982987,8.3169744 L55.0430363,8.3169744 L55.0430363,13.974871 L51.9215102,13.974871 L51.9215102,15.3334173 L55.0643223,15.3334173 L55.0643223,27.3337007 C55.0680786,31.755341 56.961696,33.9982988 60.6909159,33.9991336 C64.9719019,33.9991336 65.8730083,30.7348662 66.0470525,29.7340078 L66.0791901,29.5532857" id="Fill-6" fill="#0067A5"></path><path d="M12.5992124,8.72266011 L17.1297869,21.6591092 L8.35787687,21.6591092 L12.5992124,8.72266011 Z M49.0658501,32.1109421 L49.0658501,19.9082332 C49.0675195,18.01712 48.455652,16.4052289 47.2966096,15.2457691 C46.135063,14.0842225 44.463905,13.4452257 42.5911562,13.4460605 C40.0293261,13.44773 37.9746031,14.4790565 36.4628813,16.4870338 L36.4207267,14.1414025 L36.4178051,13.9907311 L28.7273062,13.9907311 L28.7273062,15.3263219 L31.7486631,15.3263219 L31.7486631,32.1126116 L26.3578847,32.1126116 L15.2958538,0.338071424 L15.2603771,0.234563136 L13.9076741,0.234563136 L3.04973814,32.1134463 L0,32.1134463 L0,33.4465329 L9.04320191,33.4465329 L9.04320191,32.1134463 L4.87741069,32.1134463 L7.88457688,23.0397762 L17.561767,23.0397762 L20.6135921,32.1134463 L16.4023073,32.1134463 L16.4023073,33.4465329 L39.4842381,33.4465329 L39.4842381,32.1109421 L36.4712287,32.1109421 L36.4712287,22.7947788 C36.4795761,17.2366342 39.4445877,15.219892 41.4346181,15.2207268 C43.3624599,15.2219789 44.3411976,16.4703389 44.3424497,18.9324171 C44.3424497,18.9324171 44.3424497,30.6309405 44.3424497,32.1109421 L41.516423,32.1109421 L41.516423,33.4465329 L52.1327005,33.4465329 L52.1327005,32.1109421 L49.0658501,32.1109421 Z" id="Fill-7" fill="#0067A5"></path><path d="M87.0183324,32.1109421 L87.0183324,19.712903 C87.0154108,16.8205141 85.2561873,13.4439736 80.3086581,13.4460605 C76.4763472,13.4481474 74.487569,15.3092097 73.6336256,16.2691656 L73.6336256,0.327637121 L65.9364489,0.327637121 L65.9364489,1.71289522 L68.8175687,1.71289522 L68.8175687,32.1109421 L65.70439,32.1109421 L65.70439,33.4465329 L76.6078194,33.4465329 L76.6078194,32.1109421 L73.6336256,32.1109421 L73.6336256,22.674993 C73.6344604,19.4128124 74.7492613,17.6143559 75.6841749,16.6794424 C76.5911246,15.7729101 77.7484975,15.2733157 78.9425991,15.2741504 C81.5866516,15.2758199 82.1492692,17.4469897 82.1559471,19.2700712 C82.1559471,19.2700712 82.1559471,30.6555655 82.1559471,32.1109421 L79.181336,32.1109421 L79.181336,33.4465329 L90.0851828,33.4465329 L90.0851828,32.1109421 L87.0183324,32.1109421" id="Fill-8" fill="#0067A5"></path><path d="M144.679127,32.1109421 L141.721628,32.1109421 L141.721628,18.9658069 C141.715785,15.5587982 139.382257,13.4439736 135.633838,13.4460585 C132.089096,13.4481474 130.158333,15.2123793 129.259313,16.3968814 C128.270976,14.4694569 126.363586,13.444391 123.712438,13.4460585 C121.182745,13.44773 118.916415,14.3847304 117.405945,16.0137338 L117.364625,14.1405677 L117.360034,13.9907311 L109.531385,13.9907311 L109.531385,15.3263219 L112.738055,15.3263219 L112.738055,32.1109421 L109.577296,32.1109421 L109.577296,33.4465329 L120.231554,33.4465329 L120.231554,32.1109421 L117.507366,32.1109421 L117.507366,22.8360986 C117.597936,20.1398747 117.72273,18.4036066 118.684356,17.0717722 C119.516596,15.9653187 120.839665,15.2762373 122.141449,15.2762373 C123.744993,15.2762373 124.309697,16.4861991 124.369382,16.6239319 C124.775485,17.3914792 124.775485,18.7187226 124.775485,20.0017245 L124.775485,32.1109421 L121.93318,32.1109421 L121.93318,33.4465329 L132.417568,33.4465329 L132.417568,32.1109421 L129.682946,32.1109421 L129.682946,22.8360986 C129.771846,20.1407094 129.896641,18.404024 130.862857,17.0717722 C131.692176,15.9653187 133.016497,15.2762373 134.315359,15.2762373 C135.920573,15.2762373 136.485277,16.4861991 136.543292,16.6239319 C136.950647,17.3914792 136.950647,18.7187226 136.950647,20.0017245 L136.950647,32.1109421 L134.123786,32.1109421 L134.123786,33.4465329 L144.833554,33.4465329 L144.833554,32.1109421 L144.679127,32.1109421" id="Fill-9" fill="#0067A5"></path><path d="M148.430467,30.7169192 C148.829058,30.7169192 149.38458,30.7832813 149.38458,30.2465408 C149.38458,29.8483678 149.053187,29.7957789 148.708437,29.7957789 L147.926282,29.7957789 L147.926282,30.7169192 L148.430467,30.7169192 Z M147.926282,32.3146197 L147.562333,32.3146197 L147.562333,29.463968 L148.788573,29.463968 C149.530243,29.463968 149.78317,29.7427726 149.78317,30.2532187 C149.78317,30.8033152 149.397936,31.0090797 148.901263,31.0483126 L149.750198,32.3146197 L149.338252,32.3146197 L148.535645,31.0483126 L147.926282,31.0483126 L147.926282,32.3146197 Z M150.585777,30.9030671 C150.585777,29.689349 149.71013,28.8149544 148.497664,28.8149544 C147.277268,28.8149544 146.395361,29.689349 146.395361,30.9030671 C146.395361,32.1293064 147.277268,33.0045358 148.497664,33.0045358 C149.71013,33.0045358 150.585777,32.1293064 150.585777,30.9030671 Z M145.997188,30.9030671 C145.997188,29.5370082 147.118249,28.4171987 148.497664,28.4171987 C149.869149,28.4171987 150.982281,29.5370082 150.982281,30.9030671 C150.982281,32.2812299 149.869149,33.4022914 148.497664,33.4022914 C147.118249,33.4022914 145.997188,32.2812299 145.997188,30.9030671 Z" id="Fill-10" fill="#0067A5"></path><path d="M182.082347,30.6910421 C182.480938,30.6910421 183.03646,30.7574043 183.03646,30.2202463 C183.03646,29.8224907 182.705067,29.7699018 182.3599,29.7699018 L181.578162,29.7699018 L181.578162,30.6910421 L182.082347,30.6910421 Z M181.578162,32.2887426 L181.214213,32.2887426 L181.214213,29.438091 L182.440453,29.438091 C183.182123,29.438091 183.43505,29.7160608 183.43505,30.2265069 C183.43505,30.7774381 183.049816,30.9823678 182.553561,31.0228529 L183.402495,32.2887426 L182.990549,32.2887426 L182.187525,31.0228529 L181.578162,31.0228529 L181.578162,32.2887426 Z M184.23724,30.8767727 C184.23724,29.6634719 183.36201,28.7886599 182.149127,28.7886599 C180.929148,28.7886599 180.047658,29.6634719 180.047658,30.8767727 C180.047658,32.1034294 180.929148,32.9782414 182.149127,32.9782414 C183.36201,32.9782414 184.23724,32.1034294 184.23724,30.8767727 Z M179.649068,30.8767727 C179.649068,29.5111311 180.770129,28.3904869 182.149127,28.3904869 C183.521029,28.3904869 184.634161,29.5111311 184.634161,30.8767727 C184.634161,32.2553528 183.521029,33.375997 182.149127,33.375997 C180.770129,33.375997 179.649068,32.2553528 179.649068,30.8767727 Z" id="Fill-11" fill="#0067A5"></path><path d="M176.987068,10.1488207 C175.363073,8.60746541 173.167696,7.66003067 170.751111,7.66003067 C168.25147,7.66003067 165.987643,8.67758392 164.351127,10.3182738 L163.400354,9.43678382 L163.400354,0.253344882 L178.010048,0.253344882 L178.012969,9.43594908 L176.987068,10.1488207" id="Fill-12" fill="#0067A5"></path><path d="M172.476945,11.7385911 C172.476945,11.0098594 173.43231,10.8959168 172.972783,9.28778197 C174.389344,9.59413312 175.595967,10.6876481 176.64858,11.7385911 L172.476945,11.7385911" id="Fill-13" fill="#0067A5"></path><path d="M168.877111,11.7385911 L164.705059,11.7385911 C165.623695,10.5127692 166.964294,9.59413312 168.378768,9.28819935 C167.919659,10.8959168 168.877111,11.0106941 168.877111,11.7385911" id="Fill-14" fill="#0067A5"></path><path d="M178.331007,14.9531912 C178.868999,17.9390715 177.986257,20.0822773 176.609764,21.8056069 C176.609764,21.8056069 173.814206,16.5233452 173.507854,15.9486238 C173.20359,15.3747371 173.507854,15.3367562 173.851352,15.2987754 C174.121809,15.2987754 178.331007,14.9531912 178.331007,14.9531912" id="Fill-15" fill="#0067A5"></path><path d="M163.01971,14.9531912 C163.01971,14.9531912 167.231412,15.2987754 167.499365,15.2987754 C167.842445,15.3367562 168.150466,15.3747371 167.842445,15.9486238 C167.537763,16.5233452 164.742205,21.8056069 164.742205,21.8056069 C163.36446,20.0831121 162.484222,17.9390715 163.01971,14.9531912" id="Fill-16" fill="#0067A5"></path><path d="M173.931487,23.7964719 C173.052084,24.2555812 171.940205,24.4847185 170.676402,24.4855533 C169.413434,24.4855533 168.303224,24.2555812 167.422986,23.7964719 C167.422986,23.7964719 170.409284,19.0872622 170.676402,19.0872622 C170.944355,19.0872622 173.931487,23.7964719 173.931487,23.7964719" id="Fill-17" fill="#0067A5"></path><path d="M175.777524,24.2472338 C175.777524,24.2472338 171.709815,18.3601999 171.479426,17.9766349 C171.250289,17.5951568 171.058715,17.3656021 170.676402,17.3656021 C170.293254,17.3656021 170.101263,17.5951568 169.872543,17.9766349 C169.668866,18.3151237 166.392077,23.073166 165.628286,24.1796195 C167.086167,25.1825647 168.851651,25.7689726 170.754033,25.7689726 L163.400354,33.268315 L163.400354,24.0832066 L165.086954,23.7756033 C165.667936,22.6845926 168.200968,17.966618 168.991053,16.484947 C169.872543,14.8388313 168.914257,14.1497499 167.613308,14.0733708 C166.405433,14.0024175 164.437523,13.6764499 162.233381,13.6297042 C161.88571,14.5896601 161.697058,15.6347599 161.697058,16.7140843 C161.697058,19.569327 163.022214,22.1169665 165.086954,23.7756033 L163.400354,24.0832066 L154.216497,24.0832066 L154.214828,9.43678382 L163.400354,9.43678382 L164.351127,10.3182738 C163.603614,11.0674567 162.986738,11.9472772 162.534724,12.9201716 L168.609158,12.9243453 C169.211426,12.9243453 169.697664,12.749049 169.978138,12.4606449 C170.342087,12.0904358 170.367546,11.5370004 169.872543,10.9334803 C168.991053,9.86166865 169.755262,8.82825526 170.676402,8.86707087 C171.595038,8.90546911 172.359246,9.86166865 171.479426,10.9334803 C170.984422,11.5370004 171.011134,12.0904358 171.372161,12.4606449 C171.654722,12.749049 172.139291,12.9243453 172.742394,12.9243453 L178.979186,12.9226758 C178.494617,11.8750718 177.815552,10.934315 176.987068,10.1488207 L178.012969,9.43594908 L187.194739,9.43594908 L187.194739,24.0832066 L178.012969,24.0832066 L176.30383,23.8686773 C178.434932,22.2112926 179.808087,19.6235854 179.808087,16.7140843 C179.808087,15.624743 179.617765,14.5817301 179.264251,13.6138441 C176.999172,13.6489033 174.973665,14.0011654 173.738244,14.0733708 C172.43646,14.1489152 171.479426,14.8388313 172.359246,16.4841122 C173.241988,18.1306453 176.189053,23.6382879 176.30383,23.8686773 L178.012969,24.0832066 L178.012969,33.268315 L163.400354,33.268315 L170.754033,25.7689726 C172.611756,25.7689726 174.338842,25.2084418 175.777524,24.2472338" id="Fill-18" fill="#0067A5"></path><g id="Group-22" transform="translate(191.652273, 0.000000)" fill="#0067A5"><path d="M21.9591998,30.6910421 C22.3577902,30.6910421 22.9137299,30.7574043 22.9137299,30.2202463 C22.9137299,29.8224907 22.5823364,29.7699018 22.2371696,29.7699018 L21.4554316,29.7699018 L21.4554316,30.6910421 L21.9591998,30.6910421 Z M21.4554316,32.2887426 L21.0914831,32.2887426 L21.0914831,29.438091 L22.3177225,29.438091 C23.0593927,29.438091 23.3123202,29.7160608 23.3123202,30.2265069 C23.3123202,30.7774381 22.9270858,30.9823678 22.4304129,31.0228529 L23.2793478,32.2887426 L22.8674015,32.2887426 L22.0647949,31.0228529 L21.4554316,31.0228529 L21.4554316,32.2887426 Z M24.1145095,30.8767727 C24.1145095,29.6634719 23.2392801,28.7886599 22.0263967,28.7886599 C20.806418,28.7886599 19.9245107,29.6634719 19.9245107,30.8767727 C19.9245107,32.1034294 20.806418,32.9782414 22.0263967,32.9782414 C23.2392801,32.9782414 24.1145095,32.1034294 24.1145095,30.8767727 Z M19.5263377,30.8767727 C19.5263377,29.5111311 20.6473992,28.3904869 22.0263967,28.3904869 C23.3982989,28.3904869 24.5114304,29.5111311 24.5114304,30.8767727 C24.5114304,32.2553528 23.3982989,33.375997 22.0263967,33.375997 C20.6473992,33.375997 19.5263377,32.2553528 19.5263377,30.8767727 Z" id="Fill-19"></path><path d="M13.0090719,33.1272432 C11.8796629,32.8826631 8.95012792,30.4585658 7.47430008,28.8917508 C5.99680274,27.3253533 4.86544954e-16,20.1749339 4.86544954e-16,9.49980702 C4.86544954e-16,5.48552188 0.738748667,2.25297475 2.03009803,0.000834744257 C5.16790169,1.66531479 8.32740871,2.54680473 13.0090719,2.54680473 L13.0090719,5.27683582 C9.04236716,5.27683582 5.31189508,4.31395832 3.36652359,3.2809623 C2.65323462,4.35903451 2.33185808,7.34658421 2.33185808,9.40339405 C2.33185808,19.0338385 7.34241048,25.2159545 8.02773552,26.0519509 C8.95012792,27.1776035 12.3863527,30.2699136 13.0090719,30.417246 C13.6334606,30.2699136 17.0701027,27.1776035 17.991243,26.0519509 C18.6778201,25.2151198 23.6862857,19.0330038 23.6862857,9.40255931 C23.6862857,7.34491472 23.3657439,4.35819977 22.6524549,3.2809623 C20.7079182,4.31312358 16.976194,5.27600108 13.0090719,5.27683582 L13.0090719,2.54680473 C17.6911524,2.54596998 20.8523289,1.66448005 23.9901326,4.17038532e-16 C25.2793951,2.25255738 26.0202306,5.48510451 26.0202306,9.49980702 C26.0202306,20.1749339 20.021341,27.3245185 18.5455132,28.8917508 C17.0701027,30.4585658 14.1388982,32.8826631 13.0090719,33.1272432" id="Fill-21"></path></g><path d="M203.335771,9.00146469 C203.335771,9.00146469 203.258557,9.22350667 203.104129,9.24228841 C202.955128,9.25940067 202.857462,9.19470799 202.756458,9.13085005 C202.485584,8.96139697 202.314879,8.93134618 202.314879,8.93134618 C202.314879,8.93134618 202.862054,8.74269398 203.335771,9.00146469" id="Fill-23" fill="#0067A5"></path><path d="M205.577059,9.96392482 C205.88341,9.81492297 206.653462,9.12041575 206.908894,8.94887581 C207.417253,8.60704803 208.178122,9.25647907 207.693553,9.72727483 C206.418064,10.9685395 205.808701,11.6062841 205.490663,11.9451903 C205.472716,11.9643894 205.315367,12.2836791 205.163861,12.3709099 L205.20852,12.6146552 C205.350844,12.6509666 205.488159,12.7006339 205.617127,12.7323542 C208.716115,13.4915541 207.75449,17.0546599 205.443083,17.0204354 L205.09249,17.3163522 L203.646296,17.1811237 L203.237688,16.2637397 L203.123329,16.6786076 L203.442618,17.4211126 C203.959742,17.4553372 204.152986,17.4419812 204.764018,17.5204472 C204.872535,17.5338031 205.062857,17.5776272 205.412197,17.6527542 C207.89097,18.1836515 207.304145,21.043068 205.306602,21.2429892 C205.311193,20.9554198 205.318289,20.6469818 205.34667,20.3356222 L205.080804,20.4783635 C205.076213,20.8231129 205.098333,20.814348 205.09249,21.1490805 C205.090821,21.3231247 205.09416,21.692499 205.09249,21.8611173 C204.911351,21.8352403 204.661345,21.717124 204.477284,21.6457533 C204.199314,21.5397408 204.051981,21.3974169 203.888372,21.308934 C203.885867,21.2571799 203.880024,21.0451548 203.876685,20.9917312 L203.878355,20.6052446 L203.642122,20.6507382 C203.647965,20.8498247 203.677599,21.0272078 203.694294,21.2859786 C203.338693,21.4692049 203.606645,21.5080205 203.769838,21.563531 C203.946386,21.6227979 204.375862,21.8381619 204.622529,21.9454265 C204.819111,22.0293183 205.223545,22.1824939 205.377973,22.2505255 C206.678504,22.8139779 206.543276,24.3937314 205.214363,25.088656 L205.016946,25.2184587 C205.000668,26.229334 204.923037,27.1621607 204.914272,27.2548174 C204.914272,27.2548174 204.483127,27.4526518 204.135039,27.2197581 C204.135039,27.0799384 204.117509,26.3487025 204.102484,25.7531124 L203.885867,25.694263 C203.595794,25.9425994 203.630018,26.4209078 203.491868,26.6304287 C203.460565,26.6746701 203.407142,26.7130683 203.335771,26.6775917 C203.147119,26.5799266 203.122076,26.1779973 203.120407,26.0794974 C203.114146,25.5703035 203.4518,24.9496711 203.864999,24.7881481 L203.885867,25.694263 L204.102484,25.7531124 C204.090797,25.1445839 204.050729,24.1157616 204.013166,23.2614008 C204.165507,23.3202503 204.168011,23.3035554 204.344977,23.3557269 C204.621277,23.4358624 204.805756,23.6032286 204.88756,23.7109106 C205.062857,23.8891285 205.024041,24.8052603 205.016946,25.2184587 L205.214363,25.088656 L205.212693,23.9759419 C205.214363,23.7288576 205.122541,23.5468834 204.973539,23.4045595 C204.855005,23.2931211 204.759427,23.2100641 204.503996,23.0785918 C204.364176,23.0063865 204.257329,22.9709098 203.923014,22.8861833 C201.602842,22.3018623 202.17339,20.1244319 203.597463,20.1148324 C203.612071,20.3034846 203.6392,20.4933889 203.642122,20.6507382 L203.878355,20.6052446 L203.848721,20.1073197 C203.836617,19.9558136 203.823262,19.4854352 203.829105,19.3159821 C204.041965,19.3251643 204.150064,19.353963 204.404661,19.3815095 C204.866692,19.4345158 204.869613,19.3656494 205.103342,19.4295073 C205.101672,19.5004606 205.120872,19.7796825 205.113359,19.8702523 C205.103342,20.0526439 205.083725,20.2968066 205.080804,20.4783635 L205.34667,20.3356222 C205.360026,20.1444658 205.360026,20.0835294 205.413867,19.946214 C205.579981,19.7663266 205.915965,19.6995471 205.669298,19.3426939 C205.531148,19.1436074 205.025711,19.1903531 204.564932,19.1394337 C204.319934,19.1123045 204.080363,19.1264952 203.279426,18.9749891 C201.430467,18.6210575 201.565696,16.2558097 202.761884,15.7912745 L203.123329,16.6786076 L203.237688,16.2637397 L202.854123,15.3267393 L203.439697,14.3818088 L205.090821,14.5103594 L205.09249,17.3163522 L205.443083,17.0204354 C205.221876,16.0909477 205.348339,15.2311611 205.348339,15.2311611 C206.117974,15.1497735 205.559112,14.3400716 205.34667,14.3008386 C205.047831,14.244076 204.807425,14.2457455 204.295727,14.1960782 C203.966003,14.1647753 203.40422,14.1251249 203.114146,14.0867267 C198.175382,13.44773 198.900775,8.98727404 201.304003,8.58826629 C203.049036,8.29777529 203.988124,8.96515332 204.28571,9.6767728 C204.28571,9.6767728 203.784446,9.91258805 203.377508,9.86500763 C202.576154,9.7710989 202.096593,9.83370472 202.096593,9.83370472 C202.363711,10.0795369 203.249375,10.2201913 203.610402,10.532803 C203.205133,10.7131078 202.741016,10.6984998 202.306949,10.6442414 C201.938826,10.5974957 201.59366,10.5136039 201.225537,10.3754537 C201.088639,10.8220419 200.795644,11.7740677 202.995613,12.2189864 C203.297373,12.2799228 203.674677,12.3880221 204.07452,12.4180729 C204.495231,12.4635665 204.872535,12.5299287 205.20852,12.6146552 L205.163861,12.3709099 L203.38043,12.0691498 C203.316154,11.6989408 203.294451,11.2511005 203.309059,10.8391542 C203.674677,10.8028428 203.763995,10.7573492 203.979359,10.5820529 L203.900475,10.3399771 C204.437216,10.5106823 204.923037,10.5774619 205.103342,10.5565932 L204.872535,10.3053352 C204.625868,10.2623459 204.364176,10.1362995 204.051981,10.0352955 C204.459337,9.97352438 204.599156,9.85874705 204.599156,9.85874705 C204.599156,9.85874705 204.554498,9.66425163 204.391305,9.34913568 C204.111666,8.8186557 203.478512,8.50646135 203.478512,8.50646135 C203.362483,8.31530492 203.407142,8.18925853 203.40422,8.08867185 C203.386273,7.46094417 203.743126,7.59742485 204.399652,7.81320624 L204.661345,6.30231914 C201.091561,6.30231914 197.366932,5.77768237 195.616056,4.84902939 C194.970799,5.81941959 194.844752,8.3169744 194.896924,10.1663503 C195.176146,19.7149899 199.551875,24.3991573 200.170003,25.1508445 C200.99807,26.1646414 204.101231,29.0666298 204.661345,29.2139621 C205.223545,29.0666298 208.325037,26.1646414 209.154773,25.1508445 C209.771232,24.3991573 214.148631,19.7149899 214.424931,10.1659329 C214.479607,8.31613966 214.350639,5.81858484 213.707051,4.84902939 C211.958679,5.77768237 208.231546,6.3014844 204.661345,6.30231914 L204.399652,7.81320624 C204.527786,7.86579513 204.593313,7.95219116 204.645067,7.97305977 C205.067448,8.14668658 205.46729,8.40462255 205.453517,8.52858207 C205.453517,8.52858207 205.422214,10.0403039 205.577059,9.96392482" id="Fill-24" fill="#0067A5"></path></g></g></svg>