<svg xmlns="http://www.w3.org/2000/svg" xmlns:xlink="http://www.w3.org/1999/xlink" width="279px" height="32px" viewBox="0 0 279 32"><title>Logo/Partner/Devoted Health/Color</title><g id="Logo/Partner/Devoted-Health/Color" stroke="none" stroke-width="1" fill="none" fill-rule="evenodd"><path d="M22.1538462,0 C16.6734398,0 12.2612482,4.50507983 12.2612482,10.0783745 L12.2612482,12.6792453 L32.0928882,12.6792453 L32.0928882,10.0783745 C32.0928882,4.50507983 27.6342525,0 22.1538462,0" id="Path" fill="#FF4F00" fill-rule="nonzero"></path><path d="M0,21.8751814 C0,27.4484761 4.4586357,31.9535559 9.89259797,31.9535559 L12.4470247,31.9535559 L12.4470247,11.8432511 L9.89259797,11.8432511 C4.4586357,11.8432511 0,16.3483309 0,21.8751814" id="Path" fill="#00A6E4" fill-rule="nonzero"></path><polygon id="Path" fill="#530077" fill-rule="nonzero" points="12.2612482 31.9535559 32.0928882 31.9535559 32.0928882 11.8432511 12.2612482 11.8432511"></polygon><path d="M103.291727,11.8432511 C102.362845,11.8432511 101.526851,11.8432511 100.876633,11.8432511 C100.226415,11.8432511 99.7155298,12.1219158 99.436865,12.8185776 C99.1117562,13.5152395 95.0246734,24.6153846 95.0246734,24.6153846 C95.0246734,24.6153846 90.9375907,13.0972424 90.7518142,12.6792453 C90.6124819,12.2612482 90.1944848,11.8432511 89.5442671,11.8432511 C88.8476052,11.8432511 88.011611,11.8432511 86.9898403,11.8432511 C85.9680697,11.8432511 85.5965167,12.7721335 85.8751814,13.6081277 C86.0145138,14.0725689 92.7953556,30.2815675 92.7953556,30.2815675 C92.9811321,30.7924528 93.4920174,31.0711176 94.0029028,31.0711176 L95.8606676,31.0711176 C96.371553,31.0711176 96.8824383,30.7460087 97.0682148,30.2815675 C97.0682148,30.2815675 103.802612,14.7227866 104.313498,13.5616836 C104.731495,12.7256894 104.267054,11.8432511 103.291727,11.8432511 Z M137.288824,29.8171263 C137.24238,29.1204644 137.195936,28.8417997 137.103048,28.3309144 C136.963716,27.3555878 136.267054,27.1233672 135.66328,27.3091437 C135.291727,27.4484761 134.687954,27.7735849 133.898403,27.7735849 C133.433962,27.7735849 132.923077,27.6806967 132.597968,27.2162554 C132.179971,26.658926 132.272859,25.6371553 132.272859,24.9404935 L132.365747,16.4412192 C132.365747,16.4412192 135.198839,16.4412192 136.034833,16.4412192 C136.917271,16.4412192 137.24238,15.7910015 137.24238,15.1872279 C137.24238,14.5834543 137.24238,14.2583454 137.24238,13.5616836 C137.24238,12.8650218 136.917271,12.3076923 136.034833,12.3076923 C135.152395,12.3076923 132.412192,12.3076923 132.412192,12.3076923 C132.412192,12.3076923 132.458636,8.40638607 132.458636,7.80261248 C132.458636,7.1988389 132.133527,6.31640058 130.879536,6.59506531 C130.182874,6.73439768 129.532656,6.92017417 128.882438,7.10595065 C128.232221,7.33817126 127.674891,7.75616836 127.674891,8.40638607 C127.674891,9.05660377 127.628447,12.2612482 127.628447,12.2612482 C127.628447,12.2612482 126.931785,12.2612482 125.770682,12.2612482 C124.609579,12.2612482 124.516691,13.0043541 124.516691,13.5616836 C124.516691,14.0725689 124.516691,14.2583454 124.516691,15.0943396 C124.516691,15.9303338 124.888244,16.4412192 125.817126,16.4412192 C126.746009,16.4412192 127.582003,16.4412192 127.582003,16.4412192 L127.489115,24.8940493 C127.489115,26.8911466 127.442671,28.7953556 128.696662,30.2351234 C129.671988,31.3497823 131.390421,31.9071118 133.387518,31.9071118 C135.384615,31.9071118 136.174165,31.3962264 136.592163,31.1175617 C137.056604,30.8853411 137.335269,30.4208999 137.288824,29.8171263 Z M73.0566038,17.5558781 C73.7068215,16.8127721 75.0072569,15.9767779 76.5399129,15.9767779 L76.5399129,15.9767779 C77.8867925,15.9767779 78.9085631,16.4412192 79.7445573,17.3236575 C80.766328,18.3918723 80.9056604,19.8780842 80.9056604,19.8780842 L71.9419448,19.8780842 C71.8955007,19.8780842 71.8955007,18.8563135 73.0566038,17.5558781 Z M83.1814224,14.6298984 C81.3236575,12.6328012 79.1407837,11.8432511 76.6328012,11.8432511 C73.9390421,11.8432511 71.616836,12.7256894 69.7590711,14.7227866 C68.0870827,16.5341074 67.1117562,19.1349782 67.065312,21.8287373 C67.0188679,24.7082729 68.0406386,27.3091437 69.8519594,29.1669086 C71.616836,30.9317852 74.0783745,31.9535559 76.95791,31.9535559 C81.3701016,31.9535559 83.9245283,29.724238 84.203193,29.4455733 C84.6211901,29.0275762 84.8998549,28.4238026 84.6676343,27.7735849 C84.4818578,27.2626996 84.203193,26.7518142 83.9245283,26.2409289 C83.5994194,25.6835994 82.9027576,25.2191582 81.8345428,26.0087083 C81.4165457,26.3338171 79.7445573,27.820029 77.0507983,27.820029 L77.0507983,27.820029 C75.3788099,27.820029 74.0783745,27.3555878 73.149492,26.3338171 C72.4063861,25.5442671 71.8955007,24.6153846 71.7097242,23.5007257 L84.1567489,23.5007257 C84.8069666,23.5007257 85.3642961,23.0362845 85.4571843,22.3860668 C85.5036284,22.2002903 86.2002903,17.8809869 83.1814224,14.6298984 Z M119.77939,21.9216255 C119.732946,25.1727141 117.642961,27.820029 114.531205,27.820029 C111.419448,27.820029 109.329463,25.2191582 109.375907,21.9216255 C109.422351,18.670537 111.465893,16.0232221 114.624093,16.0232221 C117.828737,16.0232221 119.825835,18.670537 119.77939,21.9216255 Z M124.656023,21.9216255 C124.702467,16.3018868 120.522496,11.8432511 114.670537,11.8432511 C108.772134,11.8432511 104.545718,16.3483309 104.499274,21.9216255 C104.45283,27.6806967 108.772134,31.9535559 114.531205,31.9535559 C120.290276,31.9535559 124.609579,27.5878084 124.656023,21.9216255 Z M174.072569,21.9216255 C174.026125,25.1727141 171.982583,27.820029 168.731495,27.820029 C165.805515,27.820029 163.529753,25.4049347 163.576197,21.9216255 C163.622642,18.670537 165.712627,16.0232221 168.824383,16.0232221 C172.029028,16.0232221 174.119013,18.670537 174.072569,21.9216255 Z M178.809869,30.2351234 C178.809869,29.4920174 178.809869,6.22351234 178.809869,5.20174165 C178.809869,4.17997097 178.020319,3.85486212 177.509434,3.99419448 C177.137881,4.08708273 175.419448,4.50507983 174.955007,4.64441219 C174.351234,4.83018868 174.026125,5.38751814 174.026125,6.03773585 C174.026125,6.3628447 173.933237,14.5834543 173.933237,14.5834543 C172.493469,12.95791 170.82148,11.796807 168.127721,11.796807 C162.36865,11.796807 158.699565,16.4876633 158.65312,21.8751814 C158.606676,27.2626996 162.182874,31.9071118 167.941945,31.9071118 C170.542816,31.9071118 172.307692,30.7460087 173.886792,29.1204644 C173.886792,29.1204644 173.886792,29.5384615 173.886792,30.3280116 C173.886792,31.1175617 174.258345,31.5820029 175.047896,31.5820029 C175.837446,31.5820029 176.719884,31.5820029 177.46299,31.5820029 C178.484761,31.628447 178.809869,31.1175617 178.809869,30.2351234 Z M144.023222,17.5558781 C144.67344,16.8127721 145.973875,15.9767779 147.506531,15.9767779 L147.506531,15.9767779 C148.853411,15.9767779 149.875181,16.4412192 150.711176,17.3236575 C151.732946,18.3918723 151.872279,19.8780842 151.872279,19.8780842 L142.908563,19.8780842 C142.862119,19.8780842 142.862119,18.8563135 144.023222,17.5558781 Z M154.148041,14.6298984 C152.290276,12.6328012 150.107402,11.8432511 147.599419,11.8432511 C144.90566,11.8432511 142.583454,12.7256894 140.725689,14.7227866 C139.053701,16.5341074 138.078374,19.1349782 138.03193,21.8287373 C137.985486,24.7082729 139.007257,27.3091437 140.818578,29.1669086 C142.583454,30.9317852 145.044993,31.9535559 147.924528,31.9535559 C152.33672,31.9535559 154.891147,29.724238 155.169811,29.4455733 C155.587808,29.0275762 155.866473,28.4238026 155.634253,27.7735849 C155.448476,27.2626996 155.169811,26.7518142 154.891147,26.2409289 C154.566038,25.6835994 153.869376,25.2191582 152.801161,26.0087083 C152.383164,26.3338171 150.711176,27.820029 148.017417,27.820029 C148.017417,27.820029 148.017417,27.820029 148.017417,27.820029 C146.345428,27.820029 145.044993,27.3555878 144.11611,26.3338171 C143.373004,25.5442671 142.862119,24.6153846 142.676343,23.5007257 L155.123367,23.5007257 C155.773585,23.5007257 156.330914,23.0362845 156.423803,22.3860668 C156.470247,22.2002903 157.166909,17.8809869 154.148041,14.6298984 Z M56.5689405,25.5442671 C54.478955,27.1233672 50.9956459,27.1233672 49.509434,27.1233672 L46.6763425,27.1233672 L46.6763425,8.82438316 L49.509434,8.82438316 C51.6923077,8.82438316 53.9216255,8.96371553 55.6865022,9.93904209 C59.3555878,12.0290276 59.8664731,15.8838897 59.8664731,17.9738752 C59.820029,21.5036284 58.7982583,23.8722787 56.5689405,25.5442671 Z M57.9622642,5.66618287 C55.7793904,4.4586357 53.2714078,3.99419448 48.9985486,3.99419448 L47.0943396,3.99419448 L43.425254,3.99419448 C42.5892598,3.99419448 41.9390421,4.69085631 41.9390421,5.57329463 L41.9390421,30.4208999 C41.9390421,31.3033382 42.5892598,32 43.425254,32 L49.4165457,32 C51.3207547,32 55.6865022,32 59.1698113,29.5849057 C62.6995646,27.1233672 64.6966618,22.9898403 64.743106,17.9738752 C64.6966618,15.9767779 64.2786647,9.1030479 57.9622642,5.66618287 Z M246.711176,3.99419448 C246.571843,3.99419448 245.550073,4.22641509 245.364296,4.27285922 C245.17852,4.31930334 245.085631,4.4586357 245.085631,4.59796807 C245.085631,4.69085631 245.085631,30.838897 245.085631,30.838897 C245.085631,31.0246734 245.17852,31.1175617 245.317852,31.1175617 C245.41074,31.1175617 246.618287,31.1175617 246.711176,31.1175617 C246.850508,31.1175617 246.943396,31.0246734 246.943396,30.838897 C246.943396,30.838897 246.943396,4.31930334 246.943396,4.27285922 C246.98984,4.08708273 246.896952,3.94775036 246.711176,3.99419448 Z M227.71553,26.0087083 C227.669086,28.7953556 230.130624,30.1886792 232.592163,30.1886792 C236.95791,30.1886792 238.908563,26.3802612 238.908563,26.3802612 L238.955007,21.6894049 C238.955007,21.6894049 235.796807,21.2714078 232.824383,21.6429608 C228.969521,22.107402 227.71553,24.1509434 227.71553,26.0087083 Z M227.390421,14.0725689 C227.901306,13.7939042 230.409289,12.4934688 233.428157,12.4934688 C239.419448,12.4934688 240.859216,16.6269956 240.812772,19.413643 C240.812772,19.413643 240.766328,24.7082729 240.766328,26.0551524 C240.766328,27.2162554 240.812772,30.3744557 240.812772,31.1640058 C240.812772,31.256894 240.766328,31.4426705 240.534107,31.4426705 C240.441219,31.4426705 239.651669,31.4426705 239.465893,31.4426705 C239.280116,31.4426705 239.233672,31.256894 239.233672,31.2104499 C239.233672,31.1640058 239.047896,28.6560232 239.047896,28.6560232 C239.047896,28.6560232 236.95791,31.8606676 232.267054,31.8606676 C228.551524,31.8606676 225.718433,29.3526851 225.764877,25.9622642 C225.811321,22.7111756 228.087083,20.6211901 232.545718,20.0638607 C235.425254,19.6923077 238.955007,20.1103048 238.955007,20.1103048 L238.955007,19.3207547 C238.955007,16.6734398 237.283019,14.1190131 233.195936,14.1190131 C230.548621,14.1190131 228.458636,15.4194485 227.854862,15.7910015 C227.71553,15.8838897 227.576197,15.8374456 227.529753,15.6981132 C227.483309,15.605225 227.251089,14.5834543 227.204644,14.4441219 C227.204644,14.2583454 227.297533,14.1190131 227.390421,14.0725689 Z M214.386067,14.0725689 C216.290276,14.0725689 217.776488,14.8156749 218.844702,16.0232221 C220.656023,18.0667634 220.563135,20.6676343 220.516691,21.0391872 L207.698113,21.0391872 C207.791001,20.2496372 208.023222,18.2060958 209.555878,16.3483309 C210.484761,15.2801161 212.203193,14.0725689 214.386067,14.0725689 Z M220.330914,15.0943396 C218.751814,13.329463 216.801161,12.4470247 214.525399,12.4470247 C212.017417,12.4470247 210.020319,13.3759071 208.301887,15.2801161 C206.769231,16.9985486 205.840348,19.5065312 205.840348,22.2002903 C205.793904,25.0798258 206.769231,27.5413643 208.441219,29.2597968 C210.066763,30.9782293 212.249637,31.8142235 214.943396,31.8142235 C218.658926,31.8142235 221.259797,29.724238 221.817126,29.2133527 C221.86357,29.1669086 221.956459,29.0275762 221.86357,28.8882438 C221.817126,28.7489115 221.352685,27.7735849 221.306241,27.6806967 C221.259797,27.5878084 221.120464,27.5413643 220.981132,27.6342525 C220.423803,28.1451379 218.194485,30.1886792 214.98984,30.1886792 C212.760522,30.1886792 211.04209,29.4920174 209.788099,28.0986938 C208.023222,26.1944848 207.698113,23.9187228 207.698113,22.5718433 C207.698113,22.5718433 221.817126,22.5718433 222.095791,22.5718433 C222.374456,22.5718433 222.467344,22.4325109 222.513788,22.2931785 C222.560232,21.4571843 222.792453,17.9274311 220.330914,15.0943396 Z M260.040639,29.3062409 C259.71553,29.4920174 259.065312,29.8635704 257.904209,29.8635704 C256.975327,29.8635704 256.185776,29.5384615 255.721335,28.934688 C255.117562,28.1451379 255.117562,26.8911466 255.117562,25.0798258 L255.117562,14.3047896 C255.117562,14.3047896 260.133527,14.3047896 260.226415,14.3047896 C260.319303,14.3047896 260.458636,14.2119013 260.458636,14.0725689 C260.458636,13.9332366 260.458636,12.95791 260.458636,12.9114659 C260.458636,12.8185776 260.365747,12.6792453 260.226415,12.6792453 C260.087083,12.6792453 255.117562,12.6792453 255.117562,12.6792453 C255.117562,12.6792453 255.117562,6.87373004 255.117562,6.82728592 C255.117562,6.73439768 255.024673,6.59506531 254.838897,6.59506531 C254.699565,6.64150943 253.538462,6.87373004 253.492017,6.87373004 C253.352685,6.92017417 253.259797,7.01306241 253.259797,7.1988389 C253.259797,7.29172714 253.259797,12.6792453 253.259797,12.6792453 C253.259797,12.6792453 250.287373,12.6792453 250.148041,12.6792453 C250.008708,12.6792453 249.91582,12.7721335 249.91582,12.9114659 C249.91582,13.0043541 249.91582,13.9796807 249.91582,14.1190131 C249.91582,14.2583454 250.008708,14.3512337 250.101597,14.3512337 L253.259797,14.3512337 L253.259797,25.2656023 C253.259797,27.3555878 253.213353,29.0275762 254.188679,30.1886792 C254.978229,31.1175617 256.139332,31.5355588 257.764877,31.5355588 C259.1582,31.5355588 259.994194,31.1640058 260.365747,30.9782293 C260.50508,30.8853411 260.551524,30.7924528 260.551524,30.6066763 C260.551524,30.467344 260.412192,29.6313498 260.365747,29.4920174 C260.319303,29.2597968 260.179971,29.2133527 260.040639,29.3062409 M265.24238,18.9027576 C265.24238,18.9027576 265.24238,30.6531205 265.24238,30.7924528 C265.24238,30.9317852 265.149492,31.0711176 264.963716,31.0711176 C264.777939,31.0711176 263.756168,31.0711176 263.570392,31.0711176 C263.384615,31.0711176 263.338171,30.9317852 263.338171,30.7924528 C263.338171,30.6995646 263.338171,4.64441219 263.338171,4.55152395 C263.338171,4.4586357 263.43106,4.27285922 263.616836,4.22641509 C263.802612,4.17997097 264.777939,3.85486212 264.917271,3.808418 C265.056604,3.76197388 265.195936,3.85486212 265.195936,3.99419448 C265.195936,4.08708273 265.195936,15.7910015 265.195936,15.7910015 C265.195936,15.7910015 267.100145,12.1219158 271.837446,12.1219158 C274.066763,12.1219158 276.017417,12.9114659 277.224964,14.3976778 C278.478955,15.9767779 278.618287,17.9274311 278.618287,20.4818578 C278.618287,20.4818578 278.618287,30.6531205 278.618287,30.7924528 C278.618287,30.8853411 278.525399,31.0711176 278.339623,31.0711176 C278.153846,31.0711176 277.17852,31.0711176 276.992743,31.0711176 C276.806967,31.0711176 276.760522,30.9317852 276.760522,30.7924528 C276.760522,30.6995646 276.760522,20.5283019 276.760522,20.5283019 C276.760522,17.8809869 276.528302,16.5805515 275.599419,15.4194485 C274.949202,14.5834543 273.555878,13.7474601 271.837446,13.7474601 C266.682148,13.701016 265.24238,18.9027576 265.24238,18.9027576 M202.82148,4.17997097 C202.82148,4.04063861 202.682148,3.94775036 202.542816,3.94775036 C202.403483,3.94775036 201.381713,4.31930334 201.195936,4.31930334 C201.01016,4.36574746 200.963716,4.50507983 200.963716,4.64441219 C200.963716,4.73730044 200.963716,15.9767779 200.963716,15.9767779 L185.079826,15.9767779 C185.079826,15.9767779 185.079826,4.27285922 185.079826,4.22641509 C185.079826,4.08708273 184.940493,3.99419448 184.801161,3.99419448 C184.661829,4.04063861 183.640058,4.36574746 183.454282,4.36574746 C183.268505,4.41219158 183.222061,4.55152395 183.222061,4.69085631 C183.222061,4.78374456 183.222061,30.9317852 183.222061,30.9317852 C183.222061,31.1175617 183.314949,31.2104499 183.500726,31.2104499 C183.593614,31.2104499 184.801161,31.2104499 184.894049,31.2104499 C185.033382,31.2104499 185.12627,31.1175617 185.12627,30.9317852 L185.12627,17.9274311 L201.01016,17.9274311 L201.01016,30.9317852 C201.01016,31.1175617 201.103048,31.2104499 201.288824,31.2104499 C201.381713,31.2104499 202.58926,31.2104499 202.682148,31.2104499 C202.82148,31.2104499 202.914369,31.1175617 202.914369,30.9317852 C202.82148,30.9782293 202.82148,4.22641509 202.82148,4.17997097 Z" id="Shape" fill="#202322" fill-rule="nonzero"></path></g></svg>