<svg xmlns="http://www.w3.org/2000/svg" viewBox="0 0 125.55 19.35"><defs><style>.cls-1{fill:none;}.cls-2{fill:#00a4e4;}.cls-3{fill:#231f20;}</style></defs><g id="Artboard_Box"><rect class="cls-1" x="-17.06" y="-32.93" width="194.4" height="72"></rect></g><g id="Logo"><path class="cls-3" d="M26.61,5.36h-2.91c.08,1.51.1,1.67.1,2.3.02.51.04,2.98.04,3.51v1.3l-.02,3.28c0,.75-.14,3.22-.16,3.59h2.87c-.2-1.47-.2-3.2-.2-4.81,0-2.12.02-7.05.29-9.17Z"></path><path class="cls-3" d="M29.96,5.36h2.89c-.22,1.51-.22,5.03-.22,7.09,0,3.04.04,5.24.2,6.89h-2.89c.22-2.43.22-5.79.22-9.27,0-1.28,0-2.73-.2-4.71Z"></path><path class="cls-3" d="M43.18,5.2c1.67,0,3.14.29,4.77,1.02l-.61,2h-.2c-.24-.49-.96-1.92-3.89-1.92-3.4,0-5.22,2.24-5.22,6.09,0,1.55.29,3.02,1.24,4.26.73.96,1.83,1.85,3.69,1.85.96,0,2.08-.2,2.89-.73.06-1.43.06-1.59.06-1.85,0-1-.06-2-.12-3h2.73c-.12.73-.16,2.87-.16,3.42,0,.77.02,1.28.06,1.85-1.73.92-3.95,1.43-5.91,1.43-3.97,0-7.28-2.47-7.28-7.05,0-4.1,2.51-7.38,7.95-7.38Z"></path><path class="cls-3" d="M60.78,12.48c-1.1-.04-2.2-.08-3.3-.08-1.16,0-2.32.04-3.49.08v2.04c0,2.63.08,3.55.18,4.83h-2.85c.16-3.1.18-6.18.18-9.27,0-1.59-.06-3.14-.2-4.71h2.87c-.1,1.12-.18,2-.18,5.81,1.02.04,2.06.08,3.08.08,1.24,0,2.47-.04,3.71-.08,0-.53-.02-3-.04-3.51,0-.63-.02-.79-.1-2.3h2.91c-.26,2.12-.29,7.05-.29,9.17,0,1.61,0,3.34.2,4.81h-2.87c.02-.37.16-2.83.16-3.59l.02-3.28Z"></path><path class="cls-3" d="M69.48,6.65c1.35,2.75,1.92,3.83,3.85,7.3l1.1,1.96.75-1.33c1.92-3.36,2.81-5.06,4.89-9.21h.88l.16,1.69c.22,2.41.49,4.65.82,7.09.16,1.22.59,4.18.82,5.2h-2.85l-.06-.75c-.04-.41-.14-2.22-.18-2.59-.1-.94-.59-5.06-.65-5.91-1.37,2.32-3.65,6.48-4.85,9.25h-.79c-.77-1.55-1.28-2.41-2.81-5.36-.31-.59-1.75-3.16-2.04-3.69-.37,2.85-.71,5.99-.86,9.05h-1.79l.12-.63c.49-2.53,1.71-10.99,1.96-13.35h.92l.63,1.28Z"></path><path class="cls-3" d="M92.94,17.08l-.86-2.16c-.88-.04-1.73-.08-2.61-.08-.82,0-1.63.04-2.45.08-.65,1.57-1.3,3.26-1.63,4.42h-1.9s2.36-5.26,2.36-5.26c2.06-4.61,3.24-7.26,3.73-8.93h1.33c.98,2.79,2.2,5.65,2.94,7.36.77,1.77,2.12,4.85,3.04,6.83h-3.1l-.86-2.26ZM89.58,8.65l-2.08,5.01c.71.02,1.41.08,2.12.08.63,0,1.24-.04,1.88-.08l-1.92-5.01Z"></path><path class="cls-3" d="M104.76,13.23c.31.43.75,1.1,1.06,1.53,1.61,2.26,2.16,2.98,3.44,4.59h-3.47c-.31-.47-.75-1.22-1.06-1.69-1.04-1.61-2.3-3.4-3.4-4.95h-.49v2.89c0,.59.08,3.22.08,3.75h-2.77c.16-4.02.18-4.46.18-8.4,0-2.67,0-2.96-.14-5.59h5.4c1.32,0,2.32.16,3.2,1,.61.59.94,1.43.94,2.28,0,2.26-1.69,3.42-3.55,3.77l.57.82ZM100.85,11.74c.39.02.88.06,1.41.06,2.04,0,2.79-1.49,2.79-2.81,0-.86-.14-1.59-.86-2.12-.55-.41-1.22-.51-1.9-.51-.39,0-1.14.08-1.45.1v5.28Z"></path><path class="cls-3" d="M110.88,5.36h2.85c-.14,1-.14,2.49-.16,3.22-.02,1.02-.02,2.18-.02,3.24,1.51-1.32,2.32-2.18,3.49-3.44.9-.98,2-2.16,2.61-3.02h2.32c-1.04.88-2.47,2.24-3.32,3.08-1.02,1-1.35,1.3-2.83,2.94l1.08,1.43c1.04,1.37,3.97,5.24,5.4,6.54h-3.55c-1.45-2.04-3.04-4.28-5.2-6.67,0,2.24,0,4.5.18,6.67h-2.85c.18-3.44.18-3.67.18-9.27,0-2.32-.02-2.67-.18-4.71Z"></path><path class="cls-3" d="M14.36,5.36c.14,1.57.2,3.12.2,4.71,0,.12,0,.24,0,.36.79.15,1.62.3,2.49.44,0-3.56.08-4.42.18-5.51h-2.87Z"></path><path class="cls-3" d="M17.05,12.8c-.86-.11-1.69-.22-2.49-.33-.01,2.29-.06,4.58-.18,6.88h2.85c-.1-1.28-.18-2.2-.18-4.83v-1.71Z"></path><path class="cls-2" d="M60.55.57C51.19-.05,40.75-.17,31.13.23c-8.89.37-16.54,1.14-22.11,2.23C3.38,3.57.35,4.91.03,6.43c-.19.9.54,1.76,2.17,2.56,3.53,1.73,11.21,3.16,21.63,4.05h.02s0-.56,0-.56v-.23c-8.18-.89-14.07-2.12-17.03-3.57-.92-.45-1.98-1.13-1.83-1.86.45-2.15,10.19-4.85,30.51-5.7,8.17-.34,16.81-.31,25.02.09.18,0,.32-.13.33-.3,0-.17-.12-.32-.3-.33Z"></path><path class="cls-3" d="M124.48,19.28c-.53,0-.91-.38-.91-.91s.38-.91.91-.91.9.38.9.91-.38.91-.9.91M124.48,17.3c-.6,0-1.08.49-1.08,1.08s.49,1.08,1.08,1.08,1.08-.48,1.08-1.08-.48-1.08-1.08-1.08"></path><path class="cls-3" d="M124.45,18.29h-.22v-.4h.34c.15,0,.29.02.29.19,0,.23-.24.2-.41.2M125.03,18.09c0-.22-.11-.34-.43-.34h-.53v1.23h.16v-.55h.27l.35.55h.18l-.37-.55c.22-.02.38-.11.38-.34"></path></g></svg>