<svg xmlns="http://www.w3.org/2000/svg" xmlns:xlink="http://www.w3.org/1999/xlink" width="155px" height="32px" viewBox="0 0 155 32"><title>Logo/Partner/Humana/Green</title><g id="Logo/Partner/Humana/Green" stroke="none" stroke-width="1" fill="none" fill-rule="evenodd"><g id="Humana_logo" fill="#4E8416" fill-rule="nonzero"><path d="M43.4190507,7.56843766 C42.8879472,7.56843766 42.4896322,7.96690327 42.4896322,8.49790636 L42.4896322,26.6887646 C41.1617982,26.9542411 39.7012261,27.2199183 38.2406539,27.2199183 C35.0539327,27.2199183 33.9916756,26.0248727 33.9916756,22.5726249 L33.9916756,8.49790636 C33.9916756,7.9668029 33.59321,7.56843766 33.1949953,7.56843766 L28.4149136,7.56843766 L28.4149136,22.5726249 C28.4149136,29.6099591 32.1327884,31.8672116 38.1078655,31.8672116 C42.8879472,31.8672116 47.668029,30.5394278 48.0663942,30.4066394 L48.0663942,7.56843766 L43.4190507,7.56843766 Z M116.580899,31.6016348 C116.979365,31.6016348 117.510318,31.2031692 117.510318,30.6721661 L117.510318,12.3485194 C118.838152,12.0830429 120.298724,11.8174159 121.759296,11.8174159 C124.946017,11.8174159 126.008274,13.0124615 126.008274,16.4647093 L126.008274,30.6721661 C126.008274,31.2033197 126.40674,31.6016348 126.804954,31.6016348 L131.585036,31.6016348 L131.585036,16.4647093 C131.585036,9.42737506 127.867161,7.17012261 121.892084,7.17012261 C117.112003,7.17012261 112.331921,8.49790636 111.933556,8.63069477 L111.933556,31.6016348 L116.580899,31.6016348 Z M97.4605722,7.17012261 C91.2198681,7.17012261 87.369255,10.4896322 87.369255,17.7925432 L87.369255,21.3775794 C87.369255,29.3443823 91.6182333,32 96.1327382,32 C98.3899907,32 100.780032,30.4066394 101.443974,29.4771707 L101.443974,30.9377429 C101.443974,31.3362085 101.842439,31.7344232 102.240654,31.7344232 C102.240654,31.7344232 106.887947,31.7344232 107.020736,31.7344232 L107.020736,8.49790636 C107.153725,8.49790636 102.506181,7.17012261 97.4605722,7.17012261 Z M101.576712,25.7593461 C100.514505,26.6887646 99.7178246,27.2199183 97.4605722,27.2199183 C94.273851,27.3529074 92.9460171,25.3609809 92.9460171,21.244791 L92.9460171,17.9252814 C92.9460171,13.2779881 94.6721661,11.9502043 97.4605722,11.9502043 C99.7178246,11.9502043 101.045608,12.0831935 101.576712,12.2156808 L101.576712,25.7593461 Z M145.6597,7.17012261 C139.419051,7.17012261 135.568443,10.4896322 135.568443,17.7925432 L135.568443,21.3775794 C135.568443,29.3443823 139.817366,32 144.464704,32 C146.721967,32 149.112008,30.4066394 149.775894,29.4771707 L149.775894,30.9377429 C149.775894,31.3362085 150.17436,31.7344232 150.572575,31.7344232 C150.572575,31.7344232 155.219863,31.7344232 155.352656,31.7344232 L155.352656,8.49790636 C155.352656,8.49790636 150.705368,7.17012261 145.6597,7.17012261 L145.6597,7.17012261 Z M149.775894,25.7593461 C148.713642,26.6887646 147.916962,27.2199183 145.6597,27.2199183 C142.472978,27.2199183 141.145205,25.3609809 141.145205,21.244791 L141.145205,17.9252814 C141.145205,13.1451997 142.871344,11.9502043 145.6597,11.9502043 C147.916962,11.9502043 149.244786,12.0831935 149.775894,12.2156808 L149.775894,25.7593461 Z M0,31.6016348 C0.79668029,31.6016348 5.04565856,31.6016348 5.04565856,31.6016348 C5.44412417,31.6016348 5.84233885,31.2031692 5.84233885,30.8049545 L5.84233885,17.5269664 L15.1369255,17.5269664 C16.7302861,17.5269664 17.7925432,18.7219617 17.7925432,20.0497957 L17.7925432,30.8049545 C17.7925432,31.2034201 18.1910088,31.6016348 18.5892235,31.6016348 C18.5892235,31.6016348 23.3693052,31.6016348 23.6348319,31.6016348 C23.6348319,31.6016348 23.6348319,0.265576825 23.6348319,0 L18.5892235,0 C18.1907579,0 17.7925432,0.398465606 17.7925432,0.79668029 L17.7925432,12.7468846 L8.23237972,12.7468846 C6.90454578,12.7468846 5.97507708,11.6846275 5.97507708,10.4896322 L5.97507708,0.79668029 C5.84208793,0.531203834 5.57661147,0 5.04565856,0 L0,0 C0,0.265476456 0,31.6016348 0,31.6016348 L0,31.6016348 Z M74.7551588,7.16997205 C72.0995411,7.16997205 69.576762,8.23237972 68.3817165,9.02906001 C66.6555675,7.70122607 64.2655266,7.16997205 61.3443823,7.16997205 C56.9626156,7.16997205 53.244791,8.49790636 52.7136875,8.76348319 L52.7136875,31.7344232 L57.4937693,31.7344232 C58.0248727,31.7344232 58.2904496,31.3359576 58.2904496,30.8049545 L58.2904496,12.3485194 C59.4854449,12.0830429 60.4149136,11.9500538 61.2115939,11.9500538 C64.5311035,11.9500538 65.3277838,13.2778375 65.3277838,16.5973471 L65.3277838,30.8048039 C65.3277838,31.2032695 65.5932602,31.7344232 66.124464,31.7344232 L70.1078655,31.7344232 C70.638969,31.7344232 70.9045458,31.335807 70.9045458,30.8048039 L70.9045458,13.0123109 C71.8340145,12.3483688 73.0290098,11.9500538 74.2240554,11.9500538 C76.7468846,11.9500538 77.8090916,13.1450491 77.8090916,16.1990321 L77.8090916,30.8048039 C77.8090916,31.2032695 78.074568,31.7344232 78.6057719,31.7344232 C78.6057719,31.7344232 82.9875385,31.7344232 83.3858536,31.7344232 L83.3858536,15.4023518 C83.5188427,9.2944361 79.668029,7.16997205 74.7551588,7.16997205 L74.7551588,7.16997205 Z" id="path9738"></path></g></g></svg>