<svg xmlns="http://www.w3.org/2000/svg" xmlns:xlink="http://www.w3.org/1999/xlink" width="186px" height="50px" viewBox="0 0 186 50"><title>Logo/Partner/Kaiser Permanente/Blue</title><g id="Logo/Partner/Kaiser-Permanente/Blue" stroke="none" stroke-width="1" fill="none" fill-rule="evenodd"><path d="M33.6864547,15.1109062 C33.0776441,14.6041082 32.3676372,14.0973101 31.6576303,13.8941012 L30.4400092,37.7291156 L36.3232735,21.2985758 C36.9320841,18.7613212 35.5120702,16.6321165 33.6864547,15.1109062 Z M23.9495665,13.6908923 L27.3984048,37.4247104 L30.846427,13.6908923 C28.8176025,12.9817015 26.1824159,12.879689 23.9495665,13.6908923 Z M21.1103548,15.1109062 C19.1827268,16.6329326 17.8647254,18.7629534 18.3715235,21.1973795 L24.2547879,37.6279193 L23.1391793,13.8941012 C22.4291723,14.0973101 21.6171529,14.6041082 21.1103548,15.1109062 Z M9.14306554,17.3421234 C13.0987019,24.2365356 17.1555346,31.7446549 21.0075263,38.3354779 C19.6887088,32.5558582 18.269511,22.9201664 16.2415027,20.1813351 C13.9074569,16.9357056 9.14306554,17.3421234 9.14306554,17.3421234 Z M2.14419258,20.7909617 L18.2703271,39.5539151 L8.33104611,17.4441359 C5.69422726,17.5445162 3.46137786,18.8641498 2.14419258,20.7909617 Z M35.9176719,25.8622066 L33.280853,38.7410795 C36.7296913,32.7590671 40.1785296,26.8758027 43.5253554,20.7909617 C40.2789099,21.0945509 37.0332805,22.312172 35.9176719,25.8622066 Z M44.4377551,20.7909617 L35.9176719,39.8583203 L50.9290139,23.5289769 C49.2045948,21.7066258 46.9725615,20.8905259 44.4377551,20.7909617 Z M0.0149878756,29.3102288 C5.28944169,33.3662454 10.5614472,37.5259068 15.8367171,41.5819234 L1.63657843,21.5009686 C0.318577048,23.7321858 -0.087024615,26.3690047 0.0149878756,29.3102288 Z M52.7538133,25.8622066 C52.4418701,25.2265164 52.0308691,24.6444486 51.5361923,24.1377875 L38.5536746,41.782684 C43.6396094,38.0019651 48.6450223,34.114337 53.5699133,30.1197999 C53.6670292,28.5994058 53.4638203,27.0790116 52.7538133,25.8622066 Z M0.115368166,37.5259068 L13.8078927,43.8098762 C9.24344583,39.2527742 4.67981505,34.8874557 0.115368166,30.4250213 L0.115368166,37.5250907 L0.115368166,37.5259068 Z M53.5699133,37.9339567 L53.5699133,31.4402496 L40.5833152,44.1191781 C45.0457495,42.0879053 49.1033984,40.059897 53.5699133,37.9315084 L53.5699133,37.9339567 Z M0.0149878756,43.8123245 C4.17709749,44.7255403 8.73746388,45.8427811 12.4898913,46.6531683 L0.0149878756,38.4366743 L0.0149878756,43.8123245 Z M53.5699133,44.118362 L53.5699133,39.1491295 C49.7154733,41.6839359 45.6586406,44.2195583 42.1086059,46.7551808 L53.5699133,44.118362 Z M0.0149878756,49.9999941 L12.18467,49.9999941 L0.0149878756,44.8275528 L0.0149878756,49.9999941 Z M53.5658328,49.9999941 L53.5658328,45.2331545 C49.6101964,46.9567575 46.1613581,48.3775875 42.4097468,49.9999941 L53.5658328,49.9999941 Z" id="Shape" fill="#367CA8"></path><path d="M49.4078036,14.5020957 C49.6101964,7.30164603 38.8605282,7.20044964 39.0637371,14.5020957 C38.9617246,21.1965634 49.7113928,21.5009686 49.4078036,14.5020957 Z M14.8223049,10.748036 C15.1267102,3.44802218 3.86942782,3.75242746 4.27747779,10.7504843 C3.86942782,18.0529464 15.5314958,18.1541428 14.8214888,10.7504843 L14.8223049,10.748036 Z M27.3992209,12.1672338 C31.6584464,12.2684302 33.2816691,9.22927405 33.3828655,6.28396942 C33.5860744,1.82153503 30.7460467,0 27.3992209,0 C24.0523951,0 21.4155762,1.92599582 21.5151404,6.28641772 C21.6171529,8.722476 22.630749,12.0676696 27.3984048,12.1696932 L27.3992209,12.1672338 Z M88.4557368,29.0041913 L90.7840699,29.0041913 L90.7840699,15.5165079 L88.4516563,15.5165079 L88.4557368,29.0041913 Z M83.9933024,25.1489353 L85.3121199,29.0041913 L87.7449137,29.0041913 L83.0792705,15.5140596 L80.1413107,15.5140596 L76.1832261,26.9778152 L72.3287861,22.1089631 L77.5020436,15.5165079 L74.7623961,15.5165079 L69.9947404,21.9057542 L69.9947404,15.5165079 L67.6623268,15.5165079 L67.6623268,29.0066396 L69.9947404,29.0066396 L69.9947404,22.4133683 L74.9647889,29.0066396 L77.7028042,29.0066396 L79.0216216,25.1513836 L83.9933024,25.1489353 Z M81.4568638,17.640816 L83.3836757,23.2204912 L79.6296161,23.2204912 L81.4552316,17.640816 L81.4568638,17.640816 Z M105.392259,46.2475667 L103.059845,36.4094821 L98.8977353,36.4094821 L98.8977353,49.9999941 L101.230149,49.9999941 L101.230149,38.4366743 L104.168109,49.999178 L106.601719,49.999178 L109.539678,38.4366743 L109.539678,49.9999941 L111.770079,49.9999941 L111.770079,36.4094821 L107.816075,36.4094821 L105.392259,46.2475667 Z M117.665585,36.4094821 L112.999942,49.9999941 L115.33154,49.9999941 L116.549161,46.04599 L121.518393,46.04599 L122.837211,49.9999941 L125.27082,49.9999941 L120.604361,36.4094821 L117.665585,36.4094821 Z M117.156339,44.2195583 L118.982771,38.5395029 L120.908766,44.2195583 L117.156339,44.2195583 Z M134.805316,46.8555611 L129.430482,36.4094821 L126.284417,36.4094821 L126.284417,49.9999941 L128.514818,49.9999941 L128.514818,39.7563079 L133.889652,49.9999941 L137.034085,49.9999941 L137.034085,36.4094821 L134.8045,36.4094821 L134.8045,46.8555611 L134.805316,46.8555611 Z M179.228083,47.9719858 L173.65004,47.9719858 L173.65004,44.2179261 L177.706057,44.2179261 L177.706057,42.1907339 L173.65004,42.1907339 L173.65004,38.4366743 L178.721285,38.4366743 L178.721285,36.4094821 L171.315994,36.4094821 L171.315994,49.9999941 L179.228083,49.9999941 L179.228083,47.9719858 Z M157.826679,36.4094821 L157.418629,36.4094821 L157.418629,46.9567575 L152.043795,36.4094821 L148.898546,36.4094821 L148.898546,47.9719858 L141.798476,47.9719858 L141.798476,44.2179261 L145.955689,44.2179261 L145.955689,42.1907339 L141.798476,42.1907339 L141.798476,38.4366743 L146.868905,38.4366743 L146.868905,36.4094821 L139.46443,36.4094821 L139.46443,49.9999941 L151.127314,49.9999941 L151.127314,39.6559276 L156.504597,49.9999941 L159.646582,49.9999941 L159.646582,38.4366743 L163.808691,38.4366743 L163.808691,49.9999941 L166.140289,49.9999941 L166.140289,38.4366743 L170.197937,38.4366743 L170.096741,36.408666 L157.826679,36.4094821 Z M95.5525417,43.2051461 C96.2641809,42.4959553 96.8713592,41.5819234 96.8713592,40.2671864 C96.8626852,39.1749058 96.3817496,38.1398229 95.5525417,37.4287909 C94.7421545,36.7171517 93.6265459,36.4135626 91.5985376,36.4135626 L87.7440976,36.4135626 L87.7440976,47.9719858 L80.543648,47.9719858 L80.543648,44.2179261 L84.7057576,44.2179261 L84.7057576,42.1907339 L80.543648,42.1907339 L80.543648,38.4366743 L85.6148929,38.4366743 L85.6148929,36.4094821 L78.2112344,36.4094821 L78.2112344,49.9999941 L90.0773273,49.9999941 L90.0773273,44.2195583 L91.1921198,44.2195583 C92.3085445,45.9439775 94.640142,49.9999941 94.640142,49.9999941 L97.3797895,49.9999941 L93.7269262,44.0155334 C94.5381295,43.914337 95.0465598,43.6099317 95.5525417,43.2051461 L95.5525417,43.2051461 Z M90.0773273,42.2935625 L90.0773273,38.4366743 L92.0033231,38.4366743 C93.831387,38.4366743 94.5397617,39.1483134 94.5397617,40.2622898 C94.5397617,41.5811073 93.8305709,42.2927464 92.0033231,42.2927464 L90.0773273,42.2935625 Z M114.418324,23.3257681 L115.633496,23.3257681 C116.648725,24.9481747 118.979506,29.0066396 118.979506,29.0066396 L121.719154,29.0066396 L118.068739,23.1225592 C118.879398,22.9201664 119.487936,22.6160332 119.894354,22.2101595 C120.722854,21.4978943 121.203578,20.4626707 121.213172,19.3701317 C121.213172,18.0529464 120.705558,17.1389145 119.894354,16.530104 C119.078254,15.8200971 117.968358,15.5165079 116.04073,15.5165079 L112.084278,15.5165079 L112.084278,27.0790116 L104.883012,27.0790116 L104.883012,23.2253878 L109.045122,23.2253878 L109.045122,21.2985758 L104.883012,21.2985758 L104.883012,17.4441359 L110.05627,17.4441359 L110.05627,15.517324 L102.653427,15.517324 L102.653427,29.0074557 L114.418324,29.0074557 L114.418324,23.3257681 Z M114.418324,21.1965634 L114.418324,17.4425037 L116.447148,17.4425037 C118.170751,17.4425037 118.879942,18.1525106 118.879942,19.3684995 C118.879942,20.687317 118.170751,21.2961275 116.447148,21.2961275 L114.418324,21.2961275 L114.418324,21.1965634 Z M75.4724031,37.4247104 C74.6563031,36.7130712 73.544775,36.4094821 71.6179631,36.4094821 L67.6623268,36.4094821 L67.6623268,49.9999941 L69.9947404,49.9999941 L69.9947404,44.4219511 L71.6179631,44.4219511 C73.544775,44.4219511 74.6603836,44.118362 75.4724031,43.4067228 C76.1815939,42.697532 76.7904044,41.6831198 76.7904044,40.3643023 C76.8046506,39.2387806 76.3225346,38.1640949 75.4724031,37.4263426 L75.4724031,37.4247104 Z M71.9223684,42.3947589 L69.9947404,42.3947589 L69.9947404,38.4366743 L71.9223684,38.4366743 C73.7479839,38.4366743 74.4588167,39.2527742 74.4588167,40.3634862 C74.4620714,41.5819234 73.6459714,42.3947589 71.9223684,42.3947589 Z M101.133033,25.1513836 C101.133033,23.2253878 99.9154119,22.0077667 97.5829983,21.0945509 C95.7573828,20.4857403 94.8433509,19.9789423 94.8433509,18.8633337 C94.8433509,18.0513142 95.6594508,17.1389145 97.3797895,17.1389145 C98.4937659,17.1389145 99.7113869,17.5469645 100.218185,17.8497376 L100.218185,15.9221095 C99.7113869,15.6177043 98.4937659,15.313299 97.3797895,15.313299 C94.4418297,15.313299 92.5109373,16.9357056 92.5109373,19.0673587 C92.5109373,21.0961831 94.0329637,22.2109756 96.264997,23.022995 C97.9894161,23.6309894 98.8006194,24.2398 98.8006194,25.3554086 C98.8006194,26.4710172 97.7878394,27.2830366 96.1646167,27.2830366 C94.9478117,27.2830366 93.3237728,26.8749866 92.5142017,26.2678083 L92.5142017,28.3986452 C93.2233925,28.8066952 94.6434064,29.2147451 96.0642364,29.2147451 C99.5130747,29.2147451 101.135481,27.2879332 101.135481,25.1570963 L101.133033,25.1513836 Z M180.849674,47.1591503 C180.850755,45.8803523 181.880995,44.8407082 183.159731,44.8280081 C184.438466,44.815308 185.489152,45.8342848 185.515632,47.1128091 C185.542112,48.3913333 184.534517,49.4529396 183.256352,49.4931961 L183.182087,49.4931961 C182.560185,49.5032342 181.960827,49.2604975 181.521172,48.8205354 C181.081518,48.3805733 180.839201,47.781045 180.849674,47.1591503 L180.849674,47.1591503 Z M183.182087,49.9999971 C184.750591,50.0004448 186.02248,48.7292865 186.022931,47.1607826 C186.023382,45.5922786 184.752223,44.3203896 183.183719,44.3199388 C181.615215,44.3194881 180.343326,45.5906464 180.34287,47.1591503 C180.341356,47.9127707 180.639947,48.6359859 181.172685,49.1690302 C181.705423,49.7020745 182.428466,50.0010803 183.182087,49.9999971 L183.182087,49.9999971 Z M182.574093,47.3623592 L183.182087,47.3623592 L183.998187,48.7831891 L184.605366,48.7831891 L183.590137,47.3623592 C184.098568,47.2611628 184.504169,47.05877 184.504169,46.4507755 C184.504169,45.8427811 184.096119,45.5375597 183.286548,45.5375597 L182.071375,45.5375597 L182.071375,48.7831891 L182.578173,48.7831891 L182.578173,47.3623592 L182.574093,47.3623592 Z M182.574093,46.9543092 L182.574093,45.9447936 L183.283284,45.9447936 C183.586873,45.9447936 183.994923,46.0468061 183.994923,46.4515916 C183.994923,46.9592058 183.586873,46.9592058 183.178823,46.9592058 L182.570828,46.9592058 L182.570828,46.9592058 L182.574093,46.9543092 Z" id="Shape" fill="#367CA8"></path></g></svg>