<svg xmlns="http://www.w3.org/2000/svg" xmlns:xlink="http://www.w3.org/1999/xlink" width="257px" height="40px" viewBox="0 0 257 40"><title>Logo/Partner/UHC/Blue Horizontal</title><g id="Logo/Partner/UHC/Blue-Horizontal" stroke="none" stroke-width="1" fill="none" fill-rule="evenodd"><g id="UHC_MB_Lockup_Horiz_blu_RGB" fill="#002677" fill-rule="nonzero"><path d="M255.325804,16.0440197 C254.58534,16.0322648 253.911224,16.4692597 253.619679,17.1500136 C253.328133,17.8307675 253.477,18.6202198 253.996447,19.148045 C254.515894,19.6758702 255.302864,19.8373485 255.988195,19.5567317 C256.673526,19.2761149 257.12125,18.6090771 257.121344,17.8685201 C257.135602,17.3854449 256.951975,16.9174969 256.612985,16.5730395 C256.273995,16.2285821 255.809045,16.0374919 255.325804,16.0440197 Z M255.325804,19.3918332 C254.703139,19.4154296 254.128436,19.0588383 253.873086,18.4904505 C253.617735,17.9220627 253.732818,17.2555826 254.163989,16.8057383 C254.595161,16.3558941 255.256166,16.2126757 255.834863,16.4437144 C256.41356,16.674753 256.794181,17.2338303 256.796988,17.856936 C256.819508,18.259395 256.673923,18.6531391 256.395,18.9441414 C256.116077,19.2351438 255.728855,19.3972805 255.325804,19.3918332 Z M97.5962931,16.0903562 C93.6808572,16.0903562 91.0802201,19.8320301 91.0802201,23.92702 C91.0802201,28.0220098 93.5881842,31.7636838 97.8858963,31.7636838 C100.903562,31.7636838 102.612221,29.7017087 103.301477,27.3675065 L102.015639,27.0083985 C101.436432,28.6243846 100.370692,29.9044309 98.2739647,29.9044309 C95.8528816,29.9044309 94.2195193,27.587605 94.2195193,23.9501882 L103.521575,23.9501882 L103.521575,23.0813785 C103.521575,19.200695 101.245294,16.0903562 97.5962931,16.0903562 Z M94.2774399,22.4616276 C94.5786273,19.5655951 95.7717926,17.7932233 97.5673328,17.7932233 C99.2122792,17.7932233 100.260643,19.3223284 100.382276,22.4616276 L94.2774399,22.4616276 Z M132.261801,11.5841297 L132.70779,11.6188821 C133.814075,11.6768028 134.653924,12.1227918 134.653924,13.3565016 L134.653924,19.8899508 L126.846221,19.8899508 L126.846221,13.3680857 C126.846221,12.1112076 127.68607,11.694179 128.792354,11.6304663 L129.163047,11.5841297 L129.163047,10.5415581 L121.256878,10.5415581 L121.256878,11.5841297 L121.702867,11.6188821 C122.809151,11.6768028 123.649001,12.1227918 123.649001,13.3565016 L123.649001,28.6243846 C123.649001,29.8812627 122.809151,30.3272517 121.702867,30.3620041 L121.256878,30.3967564 L121.256878,31.4393281 L129.163047,31.4393281 L129.163047,30.3967564 L128.746018,30.3620041 C127.639734,30.2751231 126.799884,29.8580944 126.799884,28.6243846 L126.799884,21.5059369 L134.636548,21.5059369 L134.636548,28.6243846 C134.636548,29.8812627 133.796699,30.3272517 132.690414,30.3620041 L132.244425,30.3967564 L132.244425,31.4393281 L140.16797,31.4393281 L140.16797,30.3967564 L139.750941,30.3620041 C138.644657,30.2751231 137.804807,29.8580944 137.804807,28.6243846 L137.804807,13.3680857 C137.804807,12.1112076 138.644657,11.694179 139.750941,11.6304663 L140.16797,11.5841297 L140.16797,10.5415581 L132.261801,10.5415581 L132.261801,11.5841297 Z M247.674486,16.1019403 C243.75905,16.1019403 241.158413,19.8436142 241.158413,23.9386041 C241.158413,28.033594 243.666377,31.7752679 247.975673,31.7752679 C250.999131,31.7752679 252.701998,29.7132928 253.391254,27.3790906 L252.105416,27.0199826 C251.526209,28.6359687 250.460469,29.9160151 248.363742,29.9160151 C245.942659,29.9160151 244.309296,27.5991891 244.309296,23.9617724 L253.611352,23.9617724 L253.611352,23.0929626 C253.599768,19.200695 251.323487,16.0903562 247.674486,16.0903562 L247.674486,16.1019403 Z M244.355633,22.4732117 C244.65682,19.5771793 245.849986,17.8048074 247.645526,17.8048074 C249.290472,17.8048074 250.338836,19.3339125 250.460469,22.4732117 L244.355633,22.4732117 Z M57.0112945,10.5299739 L50.0608167,10.5299739 L50.0608167,11.5841297 L50.5125977,11.6188821 C51.0846473,11.6309274 51.6279808,11.8718427 52.0209784,12.2877017 C52.413976,12.7035606 52.6238179,13.2596342 52.6035332,13.8314509 L52.6035332,24.199247 C52.6035332,27.5760209 50.8369534,29.6379959 48.0857226,29.6379959 C45.3344917,29.6379959 43.660585,27.4543875 43.660585,24.1644946 L43.660585,13.5186794 C43.660585,12.3602664 44.2919201,11.694179 45.6067188,11.607298 L46.0237475,11.5725456 L46.0237475,10.5299739 L38.0828265,10.5299739 L38.0828265,11.5841297 L38.5288155,11.6188821 C39.8146539,11.7057631 40.4749493,12.3370982 40.4749493,13.5302635 L40.4749493,24.6162757 C40.4749493,28.7112656 42.8960324,31.9142774 47.5296843,31.9142774 C51.5088329,31.9142774 54.4801622,28.9834926 54.4801622,24.5236027 L54.4801622,13.8198668 C54.453399,13.2401685 54.6635131,12.6745083 55.0622281,12.2528535 C55.4609431,11.8311988 56.0139778,11.589803 56.5942659,11.5841297 L57.0112945,11.5493774 L57.0112945,10.5299739 Z M87.7903273,29.7885896 C86.5334492,29.7885896 86.1106284,28.8618593 86.1106284,27.7845352 L86.1106284,18.0944107 L90.2114104,18.0944107 L90.2114104,16.5421373 L86.1106284,16.5421373 L86.1106284,11.9084854 L84.6162757,11.9084854 C84.0370692,15.3837243 82.2994498,16.6348103 80.4286128,17.0228787 L80.4286128,18.0712424 L83.1798436,18.0712424 L83.1798436,28.0915146 C83.1798436,30.4083406 84.5873154,31.7405155 86.8288445,31.7405155 C88.925572,31.7405155 90.3040834,30.2172024 90.9296264,28.033594 L89.8523023,27.7324066 C89.4352737,29.0124529 88.746018,29.7885896 87.7903273,29.7885896 Z M76.9012453,13.8488271 C77.9920597,13.8488271 78.8763394,12.9645473 78.8763394,11.873733 C78.8763394,10.7829186 77.9920597,9.89863886 76.9012453,9.89863886 C75.8104309,9.89863886 74.9261512,10.7829186 74.9261512,11.873733 C74.9261512,12.9645473 75.8104309,13.8488271 76.9012453,13.8488271 L76.9012453,13.8488271 Z M70.7095279,28.6533449 L70.7095279,20.4865334 C70.7095279,18.1697075 69.2730959,16.2119896 66.4349841,16.2119896 C64.3805667,16.1946398 62.5684276,17.5537442 62.0098465,19.5308427 L62.0098465,16.2699102 L56.9823342,16.6579786 L56.9823342,17.6484217 L57.5615407,17.677382 C58.4882711,17.7353026 59.0616855,18.1870837 59.0616855,19.4150014 L59.0616855,28.6533449 C59.0616855,29.910223 58.4303504,30.356212 57.4167391,30.4199247 L56.964958,30.4199247 L56.964958,31.4335361 L64.0544454,31.4335361 L64.0544454,30.448885 L63.6374167,30.448885 C62.6180133,30.3851723 61.9924703,29.9391833 61.9924703,28.6823052 L61.9924703,23.747466 C62.050391,20.1563858 63.6026643,18.0075297 65.4271648,18.0075297 C66.8346365,18.0075297 67.7439907,18.9632204 67.7439907,20.8166811 L67.7439907,28.6533449 C67.7439907,29.910223 67.1184477,30.356212 66.0990443,30.4199247 L65.6530553,30.4199247 L65.6530553,31.4335361 L72.7425427,31.4335361 L72.7425427,30.448885 L72.319722,30.448885 C71.340863,30.356212 70.7095279,29.910223 70.7095279,28.6533449 Z M78.4593107,28.6533449 L78.4593107,16.2699102 L73.2812047,16.6579786 L73.2812047,17.6484217 L74.0283811,17.677382 C74.9551115,17.7063423 75.5285259,18.1870837 75.5285259,19.4150014 L75.5285259,28.6533449 C75.5285259,29.910223 74.8971908,30.356212 73.8835795,30.4199247 L73.4317984,30.4199247 L73.4317984,31.4335361 L80.5097017,31.4335361 L80.5097017,30.448885 L80.092673,30.448885 C79.0848538,30.356212 78.4593107,29.910223 78.4593107,28.6533449 Z M118.23342,28.6533449 L118.23342,10.1187373 L113.147987,10.5647263 L113.147987,11.5841297 L113.808283,11.6188821 C114.735013,11.6478425 115.302635,12.1227918 115.302635,13.3565016 L115.302635,18.7431219 C114.63163,17.054724 112.958235,15.9826327 111.143933,16.0787721 C107.228497,16.0787721 105.015928,19.820446 105.015928,23.9154359 C105.015928,28.0104257 107.228497,31.7520996 111.143933,31.7520996 C112.981479,31.8388556 114.663727,30.7259483 115.302635,29.0008688 L115.302635,31.4509123 L120.295395,31.4509123 L120.295395,30.448885 L119.878367,30.448885 C118.864755,30.356212 118.23342,29.910223 118.23342,28.6533449 Z M111.653635,30.0608167 C109.562699,30.0608167 108.178396,27.6976542 108.178396,23.92702 C108.178396,20.1563858 109.556907,17.7932233 111.653635,17.7932233 C113.866203,17.7932233 115.302635,20.1911381 115.302635,23.92702 C115.302635,27.6629018 113.866203,30.0608167 111.653635,30.0608167 Z M199.403417,28.6533449 L199.403417,20.4865334 C199.403417,18.1697075 197.966985,16.2119896 195.128873,16.2119896 C193.074456,16.1946398 191.262317,17.5537442 190.703736,19.5308427 L190.703736,10.1419056 L185.618303,10.5878946 L185.618303,11.5841297 L186.272806,11.6188821 C187.199537,11.6478425 187.772951,12.1227918 187.772951,13.3565016 L187.772951,28.6533449 C187.772951,29.910223 187.141616,30.356212 186.122213,30.4199247 L185.676224,30.4199247 L185.676224,31.4335361 L192.765711,31.4335361 L192.765711,30.448885 L192.348682,30.448885 C191.329279,30.3851723 190.703736,29.9391833 190.703736,28.6823052 L190.703736,23.747466 C190.761657,20.1563858 192.31393,18.0075297 194.13843,18.0075297 C195.545902,18.0075297 196.455256,18.9632204 196.455256,20.8166811 L196.455256,28.6533449 C196.455256,29.910223 195.829713,30.356212 194.81031,30.4199247 L194.364321,30.4199247 L194.364321,31.4335361 L201.448016,31.4335361 L201.448016,30.448885 L201.030988,30.448885 C200.034752,30.356212 199.403417,29.910223 199.403417,28.6533449 Z M209.336809,29.8812627 C206.909933,29.8812627 205.282363,27.5644367 205.282363,23.92702 C205.282363,20.2896032 206.898349,17.856936 209.336809,17.856936 C210.260156,17.7943406 211.159149,18.1698147 211.763684,18.8705474 C211.279803,19.1726595 210.98463,19.7017851 210.981755,20.272227 C210.9975,21.1383372 211.702533,21.8330777 212.568781,21.8360846 C213.014247,21.829368 213.437178,21.6390409 213.737628,21.3100806 C214.038079,20.9811204 214.189391,20.5427143 214.155807,20.0984651 C214.155807,18.302925 212.360266,16.0903562 209.163047,16.0903562 C204.703157,16.0903562 202.13148,19.8320301 202.13148,23.92702 C202.13148,28.0220098 204.645236,31.7636838 208.94874,31.7636838 C211.914277,31.7636838 213.582392,29.7885896 214.242688,27.5470605 L212.956849,27.1589922 C212.383435,28.6823052 211.369823,29.8812627 209.336809,29.8812627 L209.336809,29.8812627 Z M226.59137,28.9603244 L226.59137,21.1757892 C226.59137,17.9727773 224.587315,16.0903562 221.210542,16.0903562 C218.314509,16.0903562 215.73704,18.0075297 215.73704,20.1911381 C215.692408,20.7782605 215.976507,21.3418347 216.475048,21.6551424 C216.973589,21.9684501 217.604615,21.9799863 218.114275,21.68511 C218.623934,21.3902337 218.928442,20.8374202 218.9053,20.2490588 C218.905168,19.6689112 218.596236,19.1326931 218.094411,18.841587 C218.737912,18.0371722 219.730127,17.5928328 220.75876,17.6484217 C222.583261,17.6484217 223.689545,19.021141 223.689545,21.3263829 L223.689545,22.0098465 L219.264408,23.8343469 C216.304663,25.0564726 215.285259,26.1511729 215.285259,28.0799305 C215.285259,30.3214596 216.901245,31.7578917 219.443962,31.7578917 C221.321528,31.7507154 222.999479,30.5844469 223.660585,28.8271069 L223.660585,29.2730959 C223.660585,30.802201 224.737909,31.7289314 226.556617,31.7289314 C227.194348,31.7354034 227.829269,31.6435841 228.439039,31.4567043 L228.439039,30.448885 C227.158992,30.5994787 226.59137,30.1187373 226.59137,28.9603244 Z M223.660585,25.5777585 C223.509991,28.213148 222.195193,29.9739357 220.370692,29.9739357 C219.770915,30.0001818 219.189203,29.7651906 218.775945,29.3297149 C218.362687,28.8942391 218.158453,28.3010284 218.216044,27.7034463 C218.20697,26.4793381 218.977622,25.3850594 220.133217,24.9811758 L223.689545,23.39415 L223.660585,25.5777585 Z M238.053866,16.1482769 C236.316247,16.1482769 234.821894,17.3066898 234.161599,19.3223284 L234.161599,16.2699102 L229.139878,16.6579786 L229.139878,17.6484217 L229.719085,17.677382 C230.645815,17.7353026 231.213438,18.1870837 231.213438,19.4150014 L231.213438,28.6533449 C231.213438,29.910223 230.587895,30.356212 229.568491,30.4199247 L229.122502,30.4199247 L229.122502,31.4335361 L236.21199,31.4335361 L236.21199,30.448885 L235.789169,30.448885 C234.775557,30.3851723 234.144222,29.9391833 234.144222,28.6823052 L234.144222,23.6258326 C234.207935,19.8899508 235.823921,17.5557486 237.793223,17.5557486 C238.165305,17.5271017 238.530084,17.6700269 238.783666,17.943817 C238.260597,18.2169514 237.935807,18.7612553 237.943817,19.3512887 C237.950127,20.2251519 238.65698,20.9320048 239.530843,20.9383145 C239.974622,20.9266358 240.394531,20.7348252 240.693914,20.4070343 C240.993296,20.0792434 241.146358,19.6437131 241.117869,19.200695 C241.142332,18.3818598 240.826989,17.5893797 240.24663,17.0112155 C239.666272,16.4330513 238.872603,16.1207115 238.053866,16.1482769 Z M255.870258,17.9206487 C256.084572,17.8592292 256.220611,17.6489869 256.188821,17.4283232 C256.188821,17.057631 255.968723,16.8491167 255.557486,16.8491167 L254.596003,16.8491167 L254.596003,18.8589632 L254.908775,18.8589632 L254.908775,18.0480741 L255.430061,18.0480741 C255.719664,18.0480741 255.806545,18.1639154 255.823921,18.4882711 C255.815228,18.6146133 255.835022,18.741295 255.881842,18.8589632 L256.246742,18.8589632 C256.183112,18.7713954 256.148663,18.6660196 256.148277,18.5577758 C256.148277,18.0944107 256.10194,18.0075297 255.864466,17.9206487 L255.870258,17.9206487 Z M255.522734,17.8048074 L254.908775,17.8048074 L254.908775,17.1503041 L255.487981,17.1503041 C255.742832,17.1503041 255.858674,17.2429771 255.858674,17.4630756 C255.870042,17.5567345 255.837711,17.6504189 255.770998,17.7171318 C255.704285,17.7838448 255.610601,17.8161755 255.516942,17.8048074 L255.522734,17.8048074 Z M165.653055,28.9603244 L165.653055,21.1757892 C165.653055,17.9727773 163.654793,16.0903562 160.272227,16.0903562 C157.376195,16.0903562 154.798726,18.0075297 154.798726,20.1911381 C154.754094,20.7782605 155.038192,21.3418347 155.536733,21.6551424 C156.035274,21.9684501 156.666301,21.9799863 157.17596,21.68511 C157.68562,21.3902337 157.990128,20.8374202 157.966985,20.2490588 C157.969244,19.6697857 157.66236,19.1332902 157.161888,18.841587 C157.804783,18.0363882 158.797423,17.5918579 159.826238,17.6484217 C161.650738,17.6484217 162.757023,19.021141 162.757023,21.3263829 L162.757023,22.0098465 L158.326093,23.8343469 C155.366348,25.0564726 154.352737,26.1511729 154.352737,28.0799305 C154.352737,30.3214596 155.962931,31.7578917 158.505647,31.7578917 C160.383736,31.7523739 162.062537,30.585515 162.72227,28.8271069 L162.72227,29.2730959 C162.72227,30.802201 163.799595,31.7289314 165.618303,31.7289314 C166.256034,31.7354034 166.890955,31.6435841 167.500724,31.4567043 L167.500724,30.448885 C166.232262,30.5994787 165.653055,30.1187373 165.653055,28.9603244 Z M162.72227,25.5777585 C162.577469,28.213148 161.256878,29.9739357 159.432378,29.9739357 C158.833588,29.9984546 158.253473,29.7627074 157.841529,29.3274458 C157.429585,28.8921842 157.226104,28.2999811 157.283522,27.7034463 C157.271816,26.4802972 158.04047,25.3855466 159.194903,24.9811758 L162.757023,23.4173183 L162.72227,25.5777585 Z M184.616276,27.7324066 C184.199247,28.9892847 183.509991,29.7654214 182.554301,29.7654214 C181.297423,29.7654214 180.880394,28.838691 180.880394,27.7613669 L180.880394,18.0944107 L184.975384,18.0944107 L184.975384,16.5421373 L180.880394,16.5421373 L180.880394,11.9084854 L179.386041,11.9084854 C178.806835,15.3837243 177.069215,16.6348103 175.198378,17.0228787 L175.198378,18.0712424 L177.949609,18.0712424 L177.949609,28.0915146 C177.949609,30.4083406 179.351289,31.7405155 181.59861,31.7405155 C183.689545,31.7405155 185.073849,30.2172024 185.6936,28.033594 L184.616276,27.7324066 Z M147.274833,16.0903562 C143.359398,16.0903562 140.752968,19.8320301 140.752968,23.92702 C140.752968,28.0220098 143.266725,31.7636838 147.576021,31.7636838 C150.593687,31.7636838 152.302346,29.7017087 152.985809,27.3675065 L151.699971,27.0083985 C151.120765,28.6243846 150.055025,29.9044309 147.964089,29.9044309 C145.543006,29.9044309 143.909644,27.587605 143.909644,23.9501882 L153.205908,23.9501882 L153.205908,23.0813785 C153.194324,19.200695 150.923834,16.0903562 147.274833,16.0903562 Z M143.95598,22.4616276 C144.257168,19.5655951 145.450333,17.7932233 147.245873,17.7932233 C148.89082,17.7932233 149.939183,19.3223284 150.055025,22.4616276 L143.95598,22.4616276 Z M173.18274,28.6533449 L173.18274,10.1187373 L168.097307,10.5647263 L168.097307,11.5841297 L168.757602,11.6188821 C169.684332,11.6478425 170.251955,12.1227918 170.251955,13.3565016 L170.251955,28.6533449 C170.251955,29.910223 169.62062,30.356212 168.607008,30.4199247 L168.155227,30.4199247 L168.155227,31.4335361 L175.267883,31.4335361 L175.267883,30.448885 L174.850854,30.448885 C173.831451,30.356212 173.18274,29.910223 173.18274,28.6533449 Z M6.40602375,38.1697075 L6.40602375,38.1697075 C7.71140578,38.614284 9.08146306,38.8393649 10.4604692,38.835795 C16.5305531,38.835795 20.7703446,34.4280336 20.7703446,26.0584999 L20.7703446,1.10049233 L23.0871706,0 L23.0871706,26.4929047 C23.0871706,35.0304083 18.6852013,40 12.4471474,40 C10.2979162,39.9929025 8.19780191,39.3566263 6.40602375,38.1697075 L6.40602375,38.1697075 Z M3.77063423,35.6327831 L3.77063423,35.6327831 C5.07421053,36.0966423 6.44209409,36.3545861 7.82507964,36.3973357 C12.9278888,36.3973357 16.3336229,33.1943238 16.3336229,25.9716189 L16.3336229,3.0002896 L18.5983203,1.93454967 L18.5983203,26.156965 C18.5983203,33.7271937 14.7639734,37.6020851 9.42368955,37.6020851 C7.37800603,37.56272 5.39800076,36.8729641 3.77063423,35.6327831 Z M2.16623226,33.3622937 L2.16623226,33.3622937 C3.25749509,33.7111656 4.39208787,33.9061128 5.53721402,33.9415001 C9.51057052,33.9415001 11.9432378,31.7694758 11.9432378,26.0642919 L11.9432378,4.93483927 L14.1789748,3.86909933 L14.1789748,25.7573125 C14.1789748,32.1633362 11.2423979,35.0651607 7.03735882,35.0651607 C5.26943245,35.0551966 3.55531125,34.4559675 2.16623226,33.3622937 L2.16623226,33.3622937 Z M9.84651028,26.6898349 L9.84651028,5.79206487 L0,10.2403707 L0,27.1879525 C0,30.4257168 2.03301477,32.5977411 5.03909644,32.5977411 C8.04517811,32.5977411 9.84651028,30.3909644 9.84651028,26.6898349 Z" id="Shape"></path></g></g></svg>