<svg xmlns="http://www.w3.org/2000/svg" xmlns:xlink="http://www.w3.org/1999/xlink" width="146px" height="32px" viewBox="0 0 146 32"><title>Logo/Partner/Wellcare/Blue</title><g id="Logo/Partner/Wellcare/Blue" stroke="none" stroke-width="1" fill="none" fill-rule="evenodd"><g id="wellcare_blue" transform="translate(0.000000, 0.000000)" fill="#00A0A3" fill-rule="nonzero"><path d="M64.8006044,2.9398288e-15 C64.8088792,0.107573472 64.8337039,0.215146943 64.8337039,0.322720415 C64.8337039,8.38245591 64.8337039,16.4504663 64.8419788,24.5102018 C64.8419788,24.8991212 64.9081778,25.3045905 65.0323011,25.6769602 C65.2970973,26.4713489 65.9425381,26.8933679 66.7121022,27.1167897 C67.0513724,27.2160883 67.4071923,27.2574627 67.7547374,27.307112 C67.9450597,27.3319367 67.9285099,27.4560599 67.9285099,27.5801832 C67.9285099,28.2090742 67.9285099,28.8296904 67.9285099,29.4585815 C67.9285099,30.1784962 67.9285099,30.898411 67.9285099,31.6183258 C67.9285099,31.9327713 67.9285099,31.9658708 67.6057895,31.9244964 C66.9272491,31.8417476 66.2487088,31.7672737 65.5784433,31.6266007 C64.684756,31.4362784 63.8324431,31.1052831 63.062879,30.6087901 C61.8216467,29.8144014 60.9858836,28.6972923 60.5473148,27.2905623 C60.2659688,26.3803252 60.1666702,25.4452635 60.1666702,24.493652 C60.1749451,16.4421914 60.1666702,8.38245591 60.1666702,0.330995297 C60.1666702,0.223421826 60.1749451,0.107573472 60.18322,2.9398288e-15 C61.7223481,2.9398288e-15 63.2614762,2.9398288e-15 64.8006044,2.9398288e-15 Z" id="Path"></path><path d="M55.0527928,2.9398288e-15 C55.0610677,0.0992985892 55.0858924,0.198597178 55.0858924,0.297895768 C55.0858924,8.25833267 55.0858924,16.2187696 55.0941673,24.1792065 C55.0941673,24.7005241 55.1272668,25.2218417 55.3672384,25.7100597 C55.6899588,26.3637754 56.2443759,26.7278703 56.9146414,26.9264674 C57.2456367,27.025766 57.5849069,27.0754153 57.9324519,27.1250646 C58.1144993,27.1498893 58.1972482,27.2160883 58.1889733,27.4146855 C58.1806984,28.788316 58.1806984,30.1536716 58.1889733,31.5273021 C58.1889733,31.67625 58.1641486,31.7755486 57.9821012,31.7589988 C56.0871531,31.6348756 54.2832288,31.2459561 52.7523755,30.0295484 C51.7924892,29.2682592 51.1635981,28.2752733 50.7995033,27.1085149 C50.5098824,26.1734531 50.4188587,25.2135668 50.4188587,24.2371307 C50.4188587,16.2684189 50.4188587,8.29970708 50.4188587,0.330995297 C50.4188587,0.223421826 50.4271336,0.107573472 50.4354084,2.9398288e-15 C51.9745366,2.9398288e-15 53.5136647,2.9398288e-15 55.0527928,2.9398288e-15 Z" id="Path"></path><path d="M13.653556,28.6641928 C13.3308356,29.0531122 13.0577645,29.4337568 12.7350441,29.7564772 C11.8165321,30.6667143 10.699423,31.2045817 9.44164086,31.4942026 C8.36590614,31.7341741 7.29017143,31.7755486 6.22271159,31.5604016 C3.48372551,31.0225343 1.48947884,29.5413303 0.488218064,26.8685433 C0.132398119,25.9252067 0.00827488244,24.9404957 0.00827488244,23.93096 C0.00827488244,19.007405 0.00827488244,14.0838499 5.8796576e-15,9.15201997 C5.8796576e-15,8.88722374 0.0827488244,8.82929956 0.330995297,8.82929956 C1.70462578,8.83757444 3.06998138,8.83757444 4.44361187,8.82929956 C4.68358346,8.82929956 4.73323275,8.89549862 4.73323275,9.12719533 C4.72495787,14.0590253 4.72495787,18.9908552 4.72495787,23.93096 C4.72495787,25.3707895 5.46142241,26.4547991 6.84332777,26.818894 C8.24178291,27.1912637 9.53266457,26.9347423 10.5504751,25.8259081 C11.0552429,25.2797658 11.1876411,24.5929506 11.1876411,23.8730358 C11.1876411,18.9825803 11.1876411,14.0921248 11.1876411,9.20166927 C11.1876411,8.83757444 11.1876411,8.83757444 11.543461,8.83757444 C12.9584659,8.83757444 14.3734708,8.84584932 15.7802008,8.82929956 C16.0118975,8.82929956 16.0615468,8.89549862 16.0615468,9.11892044 C16.0532719,14.0424755 16.0780966,18.9660305 16.044997,23.8978605 C16.0367222,25.3625147 16.8807602,26.322401 17.9233954,26.7113205 C19.1811775,27.1747139 20.3975852,27.1167897 21.4981446,26.2727517 C22.1435854,25.7762588 22.4828556,25.0728938 22.4911305,24.2702302 C22.5159551,19.2473765 22.5159551,14.216248 22.52423,9.19339439 C22.52423,8.84584932 22.52423,8.84584932 22.8717751,8.84584932 C24.2702302,8.84584932 25.6604104,8.84584932 27.0588656,8.83757444 C27.2574627,8.83757444 27.3236618,8.88722374 27.3236618,9.0940958 C27.2988372,14.150049 27.3153869,19.214277 27.2905623,24.2702302 C27.2822874,26.2231024 26.6368466,27.9691026 25.2632161,29.4006573 C24.3364292,30.3688185 23.2027703,31.0059845 21.9201636,31.3700793 C20.9271777,31.6514253 19.917642,31.7589988 18.8832817,31.6597002 C16.7980113,31.4445533 15.0354614,30.617065 13.794229,28.8627899 C13.7528546,28.788316 13.7032053,28.7303918 13.653556,28.6641928 Z" id="Path"></path><path d="M133.457304,24.634325 C134.119295,25.0232445 134.75646,25.3956142 135.393626,25.7762588 C135.948044,26.0989792 136.502461,26.4299745 137.048603,26.7526949 C137.379598,26.9430172 137.379598,26.9430172 137.181001,27.2574627 C136.039067,29.1275862 134.392366,30.3605437 132.34847,31.0804584 C130.950015,31.5686765 129.50191,31.6927997 128.028981,31.4859277 C126.258156,31.2459561 124.636279,30.6584394 123.254374,29.5082308 C121.615947,28.1428752 120.73881,26.3803252 120.68916,24.2536804 C120.631236,21.4236706 120.639511,18.585386 120.656061,15.7553762 C120.664336,13.934902 121.177378,12.2716507 122.402061,10.8814704 C123.304023,9.8471101 124.437682,9.14374509 125.712014,8.66380191 C126.878772,8.23350802 128.09518,8.02663596 129.336412,8.01836108 C130.370773,8.0100862 131.388583,8.15903408 132.381569,8.44865497 C133.515228,8.78792515 134.549588,9.29269298 135.459825,10.0457073 C136.51901,10.9145699 137.255475,12.0068544 137.669219,13.3142858 C137.94229,14.1831485 138.049864,15.0768358 138.041589,15.9870729 C138.033314,17.8820209 138.033314,19.776969 138.041589,21.6719171 C138.041589,21.9201636 137.967115,21.9780877 137.727143,21.9780877 C133.730375,21.9698129 129.741882,21.9698129 125.745113,21.9698129 C125.381019,21.9698129 125.381019,21.9698129 125.381019,22.3256328 C125.381019,22.9131495 125.356194,23.4923912 125.389294,24.0799079 C125.463767,25.197017 126.076109,25.9831308 127.035995,26.5044484 C128.07863,27.0754153 129.195739,27.1829888 130.354223,26.959567 C131.578906,26.7195954 132.530517,26.0824294 133.209057,25.0397943 C133.250432,24.9735952 133.283531,24.9073961 133.324906,24.8411971 C133.374555,24.7832729 133.407655,24.7170738 133.457304,24.634325 Z M129.452261,18.0226939 C130.710043,18.0226939 131.9761,18.0144191 133.233882,18.0309688 C133.473854,18.0309688 133.531778,17.9564949 133.523503,17.7247982 C133.506953,17.0545327 133.515228,16.3925421 133.523503,15.7222766 C133.531778,14.7623903 133.126309,14.009376 132.373294,13.4384091 C131.760953,12.9750157 131.065863,12.7184943 130.304574,12.6109208 C129.079891,12.4288734 127.913133,12.5612715 126.837398,13.2067124 C125.910611,13.7611295 125.397568,14.5803429 125.405843,15.6891771 C125.405843,16.3677175 125.414118,17.0462578 125.397568,17.7165233 C125.389294,17.9647698 125.480317,18.0309688 125.720289,18.0226939 C126.969796,18.0144191 128.211028,18.0226939 129.452261,18.0226939 Z" id="Shape"></path><path d="M43.0707631,24.634325 C43.5093318,24.8908464 43.923076,25.130818 44.3368201,25.3790644 C45.1560335,25.8590076 45.9669719,26.3472257 46.7861853,26.818894 C46.9599578,26.9181926 46.9599578,27.0009414 46.8689341,27.1498893 C45.8097492,28.9124392 44.3119954,30.1453967 42.4170474,30.9066859 C41.1509904,31.4114537 39.835284,31.6514253 38.4782033,31.5604016 C35.9874637,31.3866291 33.7532455,30.6005152 32.0320699,28.6890174 C31.2128565,27.7787803 30.6749892,26.7113205 30.4681171,25.5031877 C30.3605437,24.849472 30.2777948,24.1792065 30.2777948,23.5172159 C30.2529702,20.9933767 30.26952,18.4695376 30.26952,15.9539733 C30.26952,14.8037647 30.4432925,13.6866555 30.9149608,12.6191957 C31.5521267,11.1793662 32.5782121,10.1036315 33.9187431,9.32579251 C35.3916722,8.47347961 36.9887245,8.08456014 38.6850754,8.03491085 C40.6462225,7.96871179 42.4915213,8.38245591 44.1795973,9.40854133 C45.8262989,10.4015272 46.9185834,11.8330819 47.4068015,13.6866555 C47.5640242,14.2824471 47.6384982,14.919613 47.6467731,15.5402292 C47.6798726,17.5758503 47.6550479,19.6197463 47.6633228,21.6553673 C47.6633228,21.9201636 47.580574,21.9780877 47.3323275,21.9780877 C43.3438342,21.9698129 39.3636157,21.9698129 35.3751224,21.9698129 C35.0110276,21.9698129 35.0110276,21.9698129 35.0110276,22.3256328 C35.0110276,22.7890262 35.0193025,23.2606945 35.0110276,23.7240879 C34.9862029,25.056344 35.615094,26.0079555 36.7818524,26.5540977 C38.5940517,27.4064106 40.3648765,27.2574627 41.9702037,26.0162304 C42.3508483,25.7183346 42.6156445,25.2632161 42.9300901,24.8825715 C42.9797394,24.8246473 43.0128389,24.7418985 43.0707631,24.634325 Z M39.0574451,18.0144191 C40.3152272,18.0144191 41.5812842,18.0061442 42.8390664,18.0226939 C43.079038,18.0226939 43.145237,17.9399451 43.145237,17.7165233 C43.1369621,17.0462578 43.1535119,16.3759923 43.1369621,15.7140017 C43.1204124,14.6713666 42.6404692,13.8769778 41.7798814,13.306011 C41.2089145,12.9253664 40.5800235,12.7267692 39.9014831,12.6191957 C38.8174735,12.4454232 37.7748383,12.5529967 36.7901273,13.0329398 C35.5985442,13.6039067 34.9696532,14.5472433 35.0027527,15.8960492 C35.0110276,16.4918407 35.0027527,17.0793573 35.0027527,17.6751489 C35.0027527,18.0309688 35.0027527,18.0309688 35.3502978,18.0309688 C36.5915301,18.0144191 37.8244876,18.0144191 39.0574451,18.0144191 Z" id="Shape"></path><path d="M100.97839,17.6172247 C100.986665,17.6006749 101.01149,17.5758503 101.01149,17.5593005 C100.99494,16.9552341 101.052864,16.3346179 100.945291,15.7388264 C100.697044,14.3817457 99.8612812,13.4549588 98.611774,12.9088166 C97.3126174,12.3378497 95.9720865,12.3295748 94.6232807,12.6771199 C93.4482473,12.9832905 92.4387117,13.5625323 91.5946737,14.4727694 C91.3133277,14.2079731 91.0319817,13.9514518 90.7589106,13.6949304 C90.1796688,13.1405133 89.6087019,12.5778213 89.0211852,12.0316791 C88.8722374,11.8910061 88.8805122,11.7999824 89.0129104,11.6593094 C90.4113655,10.1532807 92.0580671,9.05272138 94.0771384,8.55622844 C95.6659158,8.15903408 97.2546933,8.09283502 98.8765702,8.37418103 C100.374324,8.63070238 101.756229,9.14374509 102.972637,10.062257 C104.230419,11.0138685 105.091007,12.246826 105.488201,13.7859541 C105.661974,14.4810443 105.752998,15.1761344 105.752998,15.8877743 C105.752998,20.836154 105.752998,25.7845337 105.752998,30.7411882 C105.752998,30.972885 105.728173,31.0970082 105.446827,31.1383826 C103.915974,31.3618044 102.40167,31.6514253 100.862542,31.8334727 C99.1992906,32.0320699 97.5277644,32.0651694 95.8562381,31.8665723 C94.4246835,31.6927997 93.0427781,31.3700793 91.8015457,30.6336148 C90.2789674,29.7233777 89.3521805,28.3828468 88.9632611,26.6451214 C88.6653653,25.3211403 88.6322658,23.9888842 88.9053369,22.6731779 C89.4349294,20.0996894 90.940958,18.3288646 93.3985981,17.385528 C94.9873755,16.7814616 96.6175273,16.682163 98.2890536,16.9138597 C99.1248167,17.0297081 99.9357552,17.2531299 100.721869,17.5758503 C100.788068,17.6006749 100.862542,17.6254996 100.937016,17.6420494 C100.937016,17.6337745 100.953566,17.6254996 100.97839,17.6172247 Z M101.019765,24.7418985 C101.019765,23.7985619 101.01149,22.8469504 101.02804,21.9036138 C101.02804,21.6967417 100.961841,21.605718 100.771518,21.5312441 C99.1165418,20.8775284 97.4201909,20.7203056 95.6907405,21.183699 C94.9460011,21.3822962 94.2674607,21.7546659 93.8040673,22.3918319 C92.9186549,23.6082396 92.91038,24.9404957 93.4813469,26.2644769 C93.9943896,27.4643348 95.0701243,27.9194533 96.2699823,28.1594249 C97.064371,28.3166477 97.8670346,28.3249226 98.6696982,28.2504486 C99.3813381,28.1759747 100.084703,28.0435766 100.796343,27.9360031 C100.986665,27.9111785 101.036315,27.8118799 101.036315,27.6215576 C101.01149,26.6533963 101.019765,25.69351 101.019765,24.7418985 Z" id="Shape"></path><path d="M86.853166,14.075575 C85.4216114,14.6465419 84.0231563,15.200959 82.5916016,15.7719259 C82.5336774,15.6064283 82.4840281,15.4492055 82.4178291,15.3002576 C81.9130612,14.0838499 81.0193739,13.306011 79.7533169,12.9667408 C78.2638381,12.5612715 76.8405583,12.7515938 75.5745013,13.653556 C74.6559893,14.2989968 74.1677713,15.1926842 74.1760462,16.3511677 C74.1925959,18.7095092 74.1925959,21.0761256 74.1760462,23.4344671 C74.1677713,24.6012255 74.6559893,25.4949128 75.5745013,26.1569034 C76.6254114,26.9099177 77.8169944,27.1581642 79.0913263,26.9761167 C80.8125019,26.7361452 81.9875352,25.8176332 82.5502272,24.1461069 C82.5585021,24.1212823 82.5750518,24.1047325 82.5998765,24.0468084 C82.7984737,24.1212823 83.0053457,24.1874814 83.2039429,24.2619553 C84.3789762,24.7170738 85.5540095,25.1887421 86.7373177,25.6355858 C86.9193651,25.7017848 86.9193651,25.8010834 86.8779907,25.9417564 C86.5221707,27.0836902 85.9760285,28.1263254 85.16509,29.0117378 C84.0810804,30.1867711 82.7570992,30.9397854 81.226246,31.3866291 C79.5795444,31.8665723 77.916293,31.9410462 76.2364919,31.6266007 C74.399468,31.2790556 72.7693161,30.5094915 71.4701596,29.1358611 C70.6012969,28.225624 70.0303301,27.1498893 69.7324343,25.9252067 C69.5172873,25.056344 69.467638,24.1709316 69.467638,23.2855192 C69.467638,20.8692535 69.4510883,18.4447129 69.4759129,16.0284473 C69.4924627,14.0838499 70.0055054,12.3130251 71.3212117,10.8235462 C72.2645483,9.76436127 73.4230319,9.02789674 74.7552879,8.56450332 C76.5509374,7.93561226 78.3796864,7.8197639 80.2498099,8.16730896 C81.9627105,8.49002938 83.4852889,9.1851195 84.743071,10.3932523 C85.661583,11.2703899 86.3070238,12.3378497 86.6959433,13.5459825 C86.7538675,13.7197551 86.7952419,13.8852527 86.853166,14.075575 Z" id="Path"></path><path d="M120.416089,9.25959345 C119.770648,10.5339253 119.125208,11.7751577 118.496316,13.0329398 C118.421843,13.1818877 118.355643,13.1984375 118.206696,13.1322384 C117.139236,12.6440204 116.046951,12.5860962 114.979491,13.1074138 C113.895482,13.6287314 113.398989,14.5555182 113.398989,15.7305515 C113.390714,20.7534051 113.390714,25.7845337 113.390714,30.8073873 C113.390714,31.1963068 113.390714,31.1963068 112.985245,31.1963068 C111.611614,31.1963068 110.246259,31.1880319 108.872628,31.2045817 C108.640931,31.2045817 108.574732,31.1466575 108.574732,30.9066859 C108.583007,25.8093583 108.566458,20.7203056 108.583007,15.622978 C108.591282,13.7528546 109.1126,12.0399539 110.378657,10.6083993 C111.437842,9.40026645 112.770098,8.65552703 114.334051,8.28315732 C115.509084,8.00181132 116.692392,7.97698667 117.8757,8.20868338 C118.719738,8.37418103 119.514127,8.68035168 120.242317,9.13547021 C120.300241,9.16029486 120.34989,9.20166927 120.416089,9.25959345 Z" id="Path"></path><path d="M145.306936,9.39199156 C145.273836,9.44164086 145.224187,9.48301527 145.199362,9.53266457 C144.97594,9.94640869 144.760793,10.3684277 144.545646,10.7904467 C144.479447,10.9228448 144.380149,11.0304183 144.231201,10.980769 C144.115353,10.9476695 143.991229,10.8731955 143.933305,10.7738969 C143.709883,10.4015272 143.519561,10.0208826 143.312689,9.64023804 C143.279589,9.57403898 143.221665,9.53266457 143.172016,9.47474039 C143.147191,9.48301527 143.130641,9.49129015 143.105817,9.49956504 C143.097542,9.59058874 143.089267,9.67333757 143.089267,9.76436127 C143.089267,10.4098021 143.080992,11.0469681 143.089267,11.6924089 C143.097542,11.9075558 143.039618,11.9903046 142.807921,11.9820298 C142.410727,11.96548 142.410727,11.9820298 142.410727,11.5848354 C142.410727,10.4760012 142.419002,9.36716692 142.410727,8.25833267 C142.410727,8.03491085 142.476926,7.97698667 142.692073,7.9604369 C143.031343,7.93561226 143.221665,8.04318573 143.370613,8.36590614 C143.627134,8.9534228 143.94158,9.50783992 144.247751,10.1284561 C144.31395,9.9877831 144.371874,9.88020963 144.421523,9.77263616 C144.686319,9.2347688 144.959391,8.70517632 145.232462,8.16730896 C145.31521,7.99353643 145.853078,7.87768808 145.993751,8.00181132 C146.0434,8.04318573 146.05995,8.13420943 146.05995,8.20868338 C146.05995,9.39199156 146.05995,10.5752998 146.068225,11.7586079 C146.068225,11.9075558 146.02685,11.96548 145.869628,11.9737549 C145.397959,11.9820298 145.397959,11.9903046 145.397959,11.5269112 C145.397959,10.8235462 145.397959,10.1284561 145.397959,9.42509109 C145.356585,9.41681621 145.33176,9.40026645 145.306936,9.39199156 Z" id="Path"></path><path d="M140.011011,10.2856789 C140.011011,9.83056033 140.011011,9.3754418 140.011011,8.91204838 C140.011011,8.5727782 140.011011,8.5727782 139.655191,8.5727782 C139.481418,8.5727782 139.299371,8.56450332 139.125598,8.5727782 C138.902177,8.58932797 138.910451,8.44038008 138.918726,8.2914322 C138.927001,8.1507592 138.852527,7.96871179 139.117324,7.96871179 C139.936537,7.97698667 140.75575,7.97698667 141.574964,7.96871179 C141.82321,7.96871179 141.781836,8.13420943 141.781836,8.28315732 C141.781836,8.4321052 141.790111,8.58105309 141.566689,8.5727782 C141.368092,8.56450332 141.161219,8.58105309 140.954347,8.5727782 C140.747475,8.55622844 140.673001,8.64725215 140.673001,8.85412421 C140.681276,9.78918592 140.681276,10.7325225 140.673001,11.6675842 C140.673001,11.7668828 140.631627,11.9406554 140.598527,11.9489302 C140.41648,11.9737549 140.234433,11.9572051 140.052385,11.9406554 C140.027561,11.9406554 140.011011,11.8082572 140.011011,11.7337833 C140.011011,11.2455652 140.011011,10.765622 140.011011,10.2856789 Z" id="Path"></path></g></g></svg>